<?xml version="1.0" encoding="utf-8"?>
<!-- Generator: Adobe Illustrator 24.0.0, SVG Export Plug-In . SVG Version: 6.00 Build 0)  -->
<svg version="1.1" id="Layer_1" xmlns="http://www.w3.org/2000/svg" xmlns:xlink="http://www.w3.org/1999/xlink" x="0px" y="0px"
	 viewBox="0 0 264 189" style="enable-background:new 0 0 264 189;" xml:space="preserve">
<style type="text/css">
	.st0{fill:#FFFFFF;}
	.st1{fill:none;stroke:#FFFFFF;stroke-width:2;}
	.st2{enable-background:new    ;}
</style>
<g id="Group_5108" transform="translate(-136 -9888.001)">
	<g id="Group_5107" transform="translate(136 9888.001)">
		<path id="Path_4854" class="st0" d="M132.1,0h114c3.9,0,3.9,0,4.5,3.8c0.7,5.1,4.8,9.1,9.9,9.5c2.7,0.2,3.5,1.3,3.4,3.9
			c-0.1,17.2-0.1,34.5,0,51.7c0,2.3-0.7,3.3-3.1,3.6c-6.1,0.7-9.6,4.5-10.3,10.6c-0.2,2-1.1,2.9-3.1,2.8c-0.7,0-1.4,0-2.1,0H18.1
			c-4.1,0-4.1,0-4.8-4.1c-0.8-5-4.9-8.8-9.9-9.2C0.8,72.3,0,71.2,0,68.7c0.1-17.2,0.1-34.3,0-51.5c0-2.5,0.8-3.7,3.4-3.9
			c5.2-0.5,9.4-4.6,10-9.8C13.9,0,13.9,0,17.6,0L132.1,0z M18.3,81.8c0.2,0,0.9,0.1,1.7,0.1c74.6,0,149.3,0,223.9,0
			c1.7,0,2.5-0.4,3-2.2c1.6-5.5,5.1-9.4,10.9-10.8c1.3-0.3,2-0.8,2-2.4c-0.1-15.8-0.1-31.6,0-47.4c0-1.6-0.7-2-2-2.3
			c-5.7-1.6-9.4-5.4-11-11.1c-0.2-0.6-0.3-1.1-0.5-1.6H17.6C16,11.5,11.5,16,4.4,17.5c-0.1,0.2-0.2,0.5-0.2,0.7
			c0,16.2,0,32.4-0.1,48.7c0,1.7,1.1,1.7,2.2,2.3c2.6,1.4,5.4,2.7,7.4,4.7S16.7,78.9,18.3,81.8L18.3,81.8z"/>
		<path id="Path_4855" class="st0" d="M132,97.9h63.3c2.2,0,2.2,0,2.5,2.2c0.3,2.9,2.6,5.2,5.5,5.5c1.5,0.1,1.9,0.8,1.9,2.2
			c0,9.9,0,19.9,0,29.8c0,1.3-0.4,1.9-1.7,2.1c-3.4,0.4-5.3,2.6-5.7,6.1c-0.1,1.2-0.6,1.7-1.7,1.6c-0.4,0-0.8,0-1.1,0H68.7
			c-2.3,0-2.3,0-2.7-2.4c-0.4-2.8-2.7-5-5.5-5.3c-1.5-0.2-1.9-0.8-1.9-2.3c0-9.9,0-19.8,0-29.6c0-1.5,0.4-2.1,1.9-2.2
			c2.9-0.3,5.3-2.7,5.5-5.6c0.3-2,0.3-2,2.3-2L132,97.9z M68.8,145c0.1,0,0.5,0.1,0.9,0.1c41.5,0,82.9,0,124.4,0
			c0.9,0,1.4-0.2,1.7-1.2c0.7-3.1,3-5.5,6.1-6.2c0.7-0.2,1.1-0.5,1.1-1.4c0-9.1,0-18.2,0-27.3c0-0.9-0.4-1.1-1.1-1.3
			c-3.1-0.8-5.4-3.3-6.1-6.4c-0.1-0.3-0.2-0.6-0.3-0.9h-127c-0.9,4.2-3.4,6.8-7.4,7.6c0,0.1-0.1,0.3-0.1,0.4c0,9.3,0,18.7,0,28
			c0,1,0.6,1,1.2,1.3c1.5,0.7,2.9,1.6,4.1,2.7C67.3,141.6,67.9,143.3,68.8,145L68.8,145z"/>
		<path id="Path_4856" class="st0" d="M133.8,122.9c0.1-4.8,1.1-9.1,4.9-12.4c0.4-0.4,0.9-0.8,1.4-1.1c6.5-4.3,15.2-2.4,19.5,4.1
			c1,1.5,1.7,3.2,2,4.9c0.7,3.4,0.6,6.9-0.3,10.3c-1.8,6.8-7.4,10.3-14.6,9.9c-7.9-0.5-12-6.3-12.6-12.3
			C133.9,125.1,133.9,124,133.8,122.9z M155.9,122.9c0-1.1-0.1-2.1-0.4-3.2c-0.1-0.8-0.4-1.5-0.7-2.2c-1.5-3.9-5.8-5.8-9.7-4.3
			c-2,0.7-3.5,2.3-4.3,4.2c-1.4,3.6-1.4,7.6,0,11.2c1.1,2.9,3.9,4.9,7.1,4.8c3.1,0,5.9-2,6.9-5C155.6,126.7,156,124.8,155.9,122.9
			L155.9,122.9z"/>
		<path id="Path_4857" class="st0" d="M187.7,43.4c0.2-8.4,1.9-16.2,8.7-21.9c0.8-0.7,1.6-1.3,2.4-1.9c11.5-7.5,26.9-4.3,34.4,7.2
			c1.7,2.7,3,5.6,3.6,8.7c1.3,6,1.1,12.3-0.5,18.3c-3.1,11.9-13.1,18.3-25.9,17.5c-14-0.9-21.2-11.1-22.3-21.8
			C187.9,47.3,187.8,45.3,187.7,43.4z M226.8,43.5c0-1.9-0.2-3.8-0.7-5.6c-0.3-1.4-0.6-2.7-1.2-4c-2.6-6.8-10.3-10.2-17.1-7.6
			c-3.5,1.3-6.2,4-7.6,7.5c-2.5,6.3-2.5,13.4,0,19.8c1.9,5.2,6.9,8.6,12.5,8.5c5.6,0.1,10.5-3.5,12.2-8.8
			C226.1,50.1,226.8,48.7,226.8,43.5L226.8,43.5z"/>
		<path id="Path_4858" class="st0" d="M81,43.4c0.2-8.4,1.9-16.2,8.7-21.9c0.8-0.7,1.6-1.3,2.4-1.9c11.5-7.5,26.9-4.3,34.4,7.2
			c1.7,2.7,3,5.6,3.6,8.7c1.3,6,1.1,12.3-0.5,18.3c-3.1,11.9-13.1,18.3-25.9,17.5c-14-0.9-21.2-11.1-22.3-21.8
			C81.3,47.3,81.1,45.3,81,43.4z M120.1,43.5c0-1.9-0.2-3.8-0.7-5.6c-0.3-1.4-0.6-2.7-1.2-4c-2.6-6.8-10.3-10.2-17.1-7.6
			c-3.5,1.3-6.2,4-7.6,7.5c-2.5,6.3-2.5,13.4,0,19.8c1.9,5.2,6.9,8.6,12.5,8.5c5.6,0.1,10.5-3.5,12.2-8.8
			C119.4,50.1,120.1,48.7,120.1,43.5L120.1,43.5z"/>
		<path id="Path_4859" class="st0" d="M65.1,52h10.7c-0.3,1.7-0.7,3.4-1.2,5c-4,10.7-13.9,15.7-26.3,13.6c-7.2-1-13.3-5.9-15.9-12.7
			c-4-9.6-4-19.5,0.5-29c4.2-8.9,11.8-12.7,21.6-12.4c9,0.3,16.1,3.7,20,12.2c0.7,2,1.3,4,1.7,6.1c-3.8,0-7,0.1-10.3-0.1
			c-0.5,0-1.2-0.9-1.4-1.5c-1.8-4.9-5.4-7.3-10.5-7.4c-4.8-0.3-9.2,2.5-10.9,6.9c-3,6.6-3.2,14-0.7,20.7c1.6,5,6.3,8.3,11.5,8.1
			c5.2-0.1,8.5-2.7,10.6-8.3L65.1,52z"/>
		<path id="Path_4860" class="st0" d="M182.3,52c-1.2,7.9-5,13.6-11.8,17c-6.9,3.5-19.4,3.2-26.4-3.4c-4.2-4-6.9-9.4-7.6-15.3
			c-1.2-9.2-0.6-18,5.4-25.7c9.7-12.4,31.7-10.4,38.5,3.4c0.9,2.2,1.7,4.5,2.3,6.9c-3.8,0-7.1,0.1-10.3-0.1c-0.5,0-1.2-0.9-1.4-1.5
			c-1.8-4.9-5.3-7.3-10.5-7.4c-4.7-0.4-9.2,2.4-10.9,6.8c-3.1,6.7-3.3,14.4-0.5,21.2c3.3,8.2,13.4,10.4,19.1,4.4
			c1.2-1.3,1.9-3.3,2.8-4.9c0.4-0.6,0.9-1.5,1.4-1.5C175.6,51.9,178.8,52,182.3,52z"/>
		<path id="Path_4861" class="st0" d="M111.4,124.7v12.8h-6.1v-29.3h6v10.9h11.4v-10.8h6.1v29.3h-5.9v-12.9H111.4z"/>
		<path id="Path_4862" class="st0" d="M76.5,128.5c1.5-0.1,2.9-0.1,4.4,0.1c0.7,0.2,1.4,0.6,1.8,1.3c1.7,3.5,8.1,4.8,11,2.2
			c1.8-1.6,1.5-4.1-0.7-5.1c-1.9-0.7-3.8-1.2-5.7-1.6c-1.3-0.4-2.7-0.6-4-1c-4.2-1.3-6-3.4-6.2-7c-0.3-4,1.5-7.5,5.2-9
			c5-2,10-1.8,14.5,1.5c2.2,1.6,3.1,4,3.1,7.1c-1.5,0.1-3,0.1-4.5-0.1c-0.7-0.2-1.3-0.6-1.6-1.2c-1.9-3.2-6-4.3-9.2-2.5
			c-0.1,0.1-0.3,0.2-0.4,0.2c-2.1,1.6-1.8,4.2,0.7,5c2.7,0.9,5.5,1.5,8.2,2.3c5.9,1.5,8,4,7.8,9c-0.2,4.5-3.7,7.9-8.9,8.6
			c-4,0.6-8,0.4-11.5-2C77.8,134.6,76.5,132.1,76.5,128.5z"/>
		<path id="Path_4863" class="st0" d="M166.5,108.2c5.2,0,10.3-0.3,15.3,0.1s7.4,3.8,7.3,9.3c0,5.6-2.2,8.5-7.4,9.2
			c-2.4,0.3-4.8,0.3-7.2,0.2c-1.5,0-2,0.5-1.9,2c0.1,2.8,0,5.7,0,8.7h-6.1V108.2z M172.7,121.7c2.3,0.1,4.7,0.1,7-0.1
			c2.1-0.2,2.9-1.9,3-3.9c0.1-2-0.5-3.9-2.6-4.1c-2.5-0.2-4.9-0.2-7.4-0.1L172.7,121.7z"/>
	</g>
	<line id="Line_421" class="st1" x1="136" y1="10047.9" x2="400" y2="10048"/>
	<g class="st2">
		<path class="st0" d="M136,10059.3h4.3c1.8,0,3.4,0.8,3.4,2.8c0,1.2-0.7,2-1.9,2.4v0c1.4,0.2,2.4,1.1,2.4,2.6
			c0,2.4-2.1,3.2-4.1,3.2H136V10059.3z M138,10063.8h1.7c1.3,0,2-0.5,2-1.5c0-1-0.7-1.4-2.2-1.4H138V10063.8z M139.7,10068.7
			c1.6,0,2.4-0.5,2.4-1.6c0-1.1-0.7-1.5-2.4-1.5H138v3.2H139.7z"/>
		<path class="st0" d="M161,10059.3v1.7h-5.3v2.8h5v1.6h-5v3.1h5.6v1.7h-7.5v-11H161z"/>
		<path class="st0" d="M174.1,10059.3h1.7l4.7,11h-2.2l-1-2.5h-4.8l-1,2.5h-2.2L174.1,10059.3z M173.2,10066.1h3.4l-1.7-4.5
			L173.2,10066.1z"/>
		<path class="st0" d="M190.9,10059.3v6.9c0,1.5,0.7,2.6,2.5,2.6s2.5-1.2,2.5-2.6v-6.9h2v6.9c0,2.6-1.8,4.3-4.4,4.3
			c-2.6,0-4.4-1.7-4.4-4.3v-6.9H190.9z"/>
		<path class="st0" d="M215,10059.3v1.7h-3.4v9.3h-2v-9.3h-3.4v-1.7H215z"/>
		<path class="st0" d="M221.8,10059.3h2.4l2.8,4.6l2.8-4.6h2.3l-4.1,6.2v4.8h-2v-4.8L221.8,10059.3z"/>
		<path class="st0" d="M246.1,10064.2c-0.8-0.8-1.2-1.6-1.2-2.5c0-1.8,1.4-2.7,3.1-2.7c1.7,0,3,0.9,3,2.7c0,1.3-0.7,2.2-2.2,2.9
			l1.8,1.9l1.3-2h2.1l-2.2,3.2l2.6,2.6h-2.5l-1.2-1.3c-0.8,1-1.9,1.5-3.3,1.5c-1.9,0-3.7-1.1-3.7-3.2
			C243.7,10065.9,244.5,10064.9,246.1,10064.2z M245.6,10067.2c0,1,0.9,1.7,1.8,1.7c0.8,0,1.5-0.4,2-1.1l-2.3-2.4
			C246.2,10065.8,245.6,10066.4,245.6,10067.2z M247.8,10063.5c1.1-0.4,1.6-1,1.6-1.7c0-0.7-0.5-1.2-1.3-1.2s-1.3,0.5-1.3,1.2
			C246.8,10062.3,247.1,10062.9,247.8,10063.5z"/>
		<path class="st0" d="M272.7,10059c1.5,0,3.2,0.6,4,1.7l-1.5,1.2c-0.5-0.7-1.5-1.1-2.5-1.1c-2.3,0-3.8,1.8-3.8,4c0,2.2,1.4,4,3.7,4
			c1.2,0,2-0.4,2.7-1.3l1.6,1.1c-1,1.3-2.4,1.9-4.2,1.9c-3.4,0-5.9-2.4-5.9-5.8C266.8,10061.3,269.3,10059,272.7,10059z"/>
		<path class="st0" d="M285.3,10064.8c0-3.5,2.4-5.7,5.9-5.7c3.5,0,5.9,2.2,5.9,5.7c0,3.5-2.5,5.8-5.9,5.8
			C287.7,10070.6,285.3,10068.2,285.3,10064.8z M291.2,10068.8c2.3,0,3.8-1.8,3.8-4s-1.5-4-3.8-4c-2.3,0-3.8,1.8-3.8,4
			C287.4,10067,288.8,10068.8,291.2,10068.8z"/>
		<path class="st0" d="M307.3,10067.7c0.5,0.7,1.5,1.2,2.4,1.2c1.1,0,2-0.5,2-1.6c0-1-1-1.5-1.8-1.7c-1.8-0.5-3.5-1.1-3.5-3.3
			c0-2.2,2-3.2,4-3.2c1.2,0,2.4,0.4,3.2,1.2l-1.3,1.4c-0.4-0.6-1.3-0.9-2-0.9c-1,0-1.9,0.5-1.9,1.5c0,0.5,0.2,0.8,0.6,1.1
			c0.4,0.3,0.7,0.4,1.5,0.6c0.7,0.2,1.1,0.3,1.7,0.7c0.3,0.2,0.6,0.4,0.8,0.6c0.4,0.4,0.7,1.1,0.7,1.9c0,2.4-1.8,3.5-4,3.5
			c-1.5,0-2.9-0.6-3.8-1.6L307.3,10067.7z"/>
		<path class="st0" d="M326.4,10059.3l2.8,7.8h0l2.8-7.8h3.1v11h-1.9v-8.8h0l-3.3,8.8h-1.4l-3.3-8.8h0v8.8h-1.9v-11H326.4z"/>
		<path class="st0" d="M352.6,10059.3v1.7h-5.3v2.8h5v1.6h-5v3.1h5.6v1.7h-7.5v-11H352.6z"/>
		<path class="st0" d="M369.7,10059.3v1.7h-3.4v9.3h-2v-9.3H361v-1.7H369.7z"/>
		<path class="st0" d="M378.3,10070.3v-11h2v11H378.3z"/>
		<path class="st0" d="M395.9,10059c1.5,0,3.2,0.6,4,1.7l-1.5,1.2c-0.5-0.7-1.5-1.1-2.5-1.1c-2.3,0-3.8,1.8-3.8,4c0,2.2,1.4,4,3.7,4
			c1.2,0,2-0.4,2.7-1.3l1.6,1.1c-1,1.3-2.4,1.9-4.2,1.9c-3.4,0-5.9-2.4-5.9-5.8C389.9,10061.3,392.4,10059,395.9,10059z"/>
	</g>
</g>
</svg>
