<svg xmlns="http://www.w3.org/2000/svg" width="217.792" height="136.123" viewBox="0 0 217.792 136.123">
  <g id="Group_5984" data-name="Group 5984" transform="translate(427.796 -398.64)">
    <path id="Path_12397" data-name="Path 12397" d="M-284.5,398.64c1.628.334,3.274.6,4.882,1.012,14.539,3.736,24.112,12.8,28.787,27.07.589,1.8.113,2.563-1.724,3.08-4.163,1.174-7.374-.3-9.548-4.531a30.5,30.5,0,0,0-9.215-11.006,29.4,29.4,0,0,0-43.147,9.973,23.073,23.073,0,0,1-1.9,3.172,7.69,7.69,0,0,1-8.846,2.2c-1.379-.607-1.492-1.6-1.078-2.911a39.043,39.043,0,0,1,21.041-24.39,36.316,36.316,0,0,1,11.752-3.364,4.447,4.447,0,0,0,.909-.307Z" transform="translate(-30.042)" fill="#fff"/>
    <path id="Path_12398" data-name="Path 12398" d="M-415.951,575.024c-2.244-1.192-4.767-2.048-6.68-3.64-6.077-5.056-6.854-14.391-1.995-20.666A15.061,15.061,0,0,1-404,547.594c1.048.72,1.987,1.6,2.956,2.394-1.971,2.985-3.825,3.511-6.751,2.032-2.127-1.075-4.25-1.955-6.749-1.363a8.732,8.732,0,0,0-6.942,6.989c-.837,3.718-.2,7.27,2.957,9.773a8.986,8.986,0,0,0,9.816,1.06c.307-.136.6-.3.9-.456,2.969-1.513,4.508-1.1,6.53,1.821a14.325,14.325,0,0,1-7.247,4.53c-.685.189-1.356.431-2.032.649Z" transform="translate(0 -40.261)" fill="#fff"/>
    <path id="Path_12399" data-name="Path 12399" d="M-322.664,575.013a16.728,16.728,0,0,1-8.519-5.089,15.339,15.339,0,0,1,.319-20.075,15,15,0,0,1,20.277-2c.9.653,1.708,1.422,2.535,2.117-1.865,3.036-3.9,3.691-7.007,1.887a8.844,8.844,0,0,0-12.721,3.717,10.147,10.147,0,0,0,1.742,11.421c2.67,2.674,7.164,3.122,11.106,1.107,3.129-1.6,4.533-1.249,6.634,1.7a14.641,14.641,0,0,1-8.233,4.847c-.368.091-.72.241-1.08.364Z" transform="translate(-27.591 -40.251)" fill="#fff"/>
    <path id="Path_12400" data-name="Path 12400" d="M-138.717,575.013a26.637,26.637,0,0,1-3.334-2.705c-1.985-2.2-3.8-4.547-5.736-6.891-4.669,4.637-8.964,9.762-16.59,8.423.829-.489,1.683-.94,2.484-1.472a49.606,49.606,0,0,0,11.824-11.651c2.445-3.222,4.775-6.539,7.363-9.642a33.826,33.826,0,0,1,5.138-4.8,7.472,7.472,0,0,1,5.691-1.389c-2.164,2.461-4.341,4.827-6.388,7.3-1.718,2.074-3.238,4.312-4.942,6.4-.729.892-.589,1.47.082,2.293,3.412,4.177,6.772,8.4,10.138,12.611.38.476.675,1.018,1.01,1.529Z" transform="translate(-78.126 -40.25)" fill="#fff"/>
    <path id="Path_12401" data-name="Path 12401" d="M-288.534,496.691a38.689,38.689,0,0,1-37.537-27.276c-.839-2.628-.355-3.408,2.392-3.859,4.089-.671,6.644.684,8.782,4.861a29.889,29.889,0,0,0,11.09,12.15,29.41,29.41,0,0,0,41.164-11.26c.447-.843.88-1.7,1.4-2.5a7.684,7.684,0,0,1,9.168-2.973c1.432.545,1.778,1.474,1.3,2.931-4.829,14.575-14.645,23.708-29.569,27.272a25.559,25.559,0,0,1-3.981.625C-285.725,496.774-287.132,496.691-288.534,496.691Z" transform="translate(-30.059 -18.35)" fill="#fff"/>
    <path id="Path_12402" data-name="Path 12402" d="M-263.945,458.673c-5.751,7.612-20.109,11.364-29.706,2.676-8.757-7.926-9.166-21.986-.866-30.139a20.794,20.794,0,0,1,30.661,1.316c-2.141,4.054-5.582,5.255-9.592,3.056-4.077-2.234-8.074-2.86-12.3-.506-5.162,2.878-7.441,10.556-4.795,16.324a11.628,11.628,0,0,0,14.666,5.772,16.292,16.292,0,0,0,3.172-1.537,4.6,4.6,0,0,1,5.893.368C-265.814,456.8-264.937,457.739-263.945,458.673Z" transform="translate(-37.757 -7.846)" fill="#fff"/>
    <path id="Path_12403" data-name="Path 12403" d="M-370.139,574.461a14.842,14.842,0,0,1-14.853-14.76,14.913,14.913,0,0,1,15.145-14.669,14.794,14.794,0,0,1,14.711,14.874A14.744,14.744,0,0,1-370.139,574.461Zm-8.915-14.631a9.122,9.122,0,0,0,9,9.211,9.2,9.2,0,0,0,9.072-9.351,9.269,9.269,0,0,0-9.045-9.24A9.2,9.2,0,0,0-379.054,559.829Z" transform="translate(-12.695 -40.317)" fill="#fff"/>
    <path id="Path_12404" data-name="Path 12404" d="M-277.13,574.46A14.773,14.773,0,0,1-291.938,559.7a14.829,14.829,0,0,1,15.106-14.663,14.789,14.789,0,0,1,14.709,14.879A14.739,14.739,0,0,1-277.13,574.46Zm.175-5.425a9.31,9.31,0,0,0,9.044-9.262,9.373,9.373,0,0,0-9.186-9.318,9.28,9.28,0,0,0-8.994,9.291A9.2,9.2,0,0,0-276.955,569.035Z" transform="translate(-40.293 -40.317)" fill="#fff"/>
    <path id="Path_12405" data-name="Path 12405" d="M-179.213,546.484c0,4.956.006,9.775,0,14.594a26.376,26.376,0,0,1-.113,3.7c-.76,5.242-3.884,8.573-9.085,9.773a20.185,20.185,0,0,1-9.654-.124c-4.854-1.243-8.2-4.908-8.427-9.931-.271-5.935-.063-11.891-.063-18.017.91,0,1.789-.065,2.655.014,2.2.2,3.05,1.14,3.069,3.4.034,3.99-.044,7.983.07,11.97a7.746,7.746,0,0,0,4.352,6.9c4.79,2.652,10.454-1.011,11.13-5.544a21.922,21.922,0,0,0,.274-3.014c.033-3.484,0-6.969.019-10.454.013-2.177.812-3.053,2.984-3.254C-181.136,546.416-180.251,546.484-179.213,546.484Z" transform="translate(-65.593 -40.74)" fill="#fff"/>
    <path id="Path_12406" data-name="Path 12406" d="M-218.953,575.005h-21.408V546.36a30.379,30.379,0,0,1,3.713.253c1.806.336,2.115,1.789,2.117,3.351q.008,5.821,0,11.643v7.956h8.039C-221.379,569.564-220.94,569.871-218.953,575.005Z" transform="translate(-55.59 -40.711)" fill="#fff"/>
    <path id="Path_12407" data-name="Path 12407" d="M-151.057,560.581l-11.218-14.031c4.131-.569,7.665-.383,10.09,3.46a73.565,73.565,0,0,0,4.612,5.93Z" transform="translate(-78.749 -40.696)" fill="#fff"/>
  </g>
</svg>
