<svg xmlns="http://www.w3.org/2000/svg" width="51.259" height="51.259" viewBox="0 0 51.259 51.259">
  <path id="img_quality_4" d="M25.63,51.259A25.626,25.626,0,0,1,24.913.018C25.152.011,25.389,0,25.63,0s.454.011.681.017a25.626,25.626,0,0,1-.681,51.242Zm0-48.886A23.257,23.257,0,1,0,48.886,25.63,23.282,23.282,0,0,0,25.63,2.373Zm16.8,24.168L42.2,28.63l2.154.266-.113,1.028-5.008-.618.113-1.029,2.081.257.227-2.089-2.08-.256.112-1.029,5.007.619-.111,1.028Zm.589-2.466A1.461,1.461,0,0,1,41.78,23.8a2.111,2.111,0,0,1-.716-1.29l-.191-.924-1.788.357-.211-1.018,4.931-.981.4,1.939a2.054,2.054,0,0,1-.148,1.462,1.445,1.445,0,0,1-1.038.728Zm.425-2.038-.192-.923-1.618.322.191.923a.881.881,0,0,0,.36.6.8.8,0,0,0,.619.105.831.831,0,0,0,.541-.335A.848.848,0,0,0,43.446,22.037Zm-6.071-4.078,1.488-3.7-.016-.015-2.72,2.015-.614-.838,4.036-2.99.615.837-1.486,3.7.016.015,2.717-2.013.614.838L37.989,18.8l-.614-.838Zm.57-8.675a1.054,1.054,0,0,1-.28-.358,1.027,1.027,0,0,0-.24-.328.165.165,0,0,0-.167-.016.366.366,0,0,0-.162.134l-.258-.322a.676.676,0,0,1,.365-.261.439.439,0,0,1,.407.068,1.194,1.194,0,0,1,.269.345,1.183,1.183,0,0,0,.258.338.168.168,0,0,0,.171.01.389.389,0,0,0,.172-.139l.243.347a.64.64,0,0,1-.367.256.459.459,0,0,1-.41-.075Zm-.186.167.37,1.257-.018.013-.716-.532-.174-.718-.73.048-.719-.533.008-.021,1.3-.018Zm-.071,2.261-1.823-1.353-.742,1.027,1.539,1.141-.454.631-1.541-1.141-.843,1.168,1.831,1.356-.455.627L32.537,13.2l2.949-4.084,2.658,1.969-.457.631Zm-6.833.735L32.9,7.825l.939.432-2.044,4.622-.938-.432Zm-1.625-.652.47-3.433-.021-.006L27.956,11.6l-.691-.1-.784-3.633H26.46L25.99,11.3l-1.017-.154.686-5.028,1.334.2.784,3.9.021,0L29.607,6.72l1.326.2-.684,5.028-1.019-.154Zm-7.761-.931-1.56.553.047,1.15-.963.342.008.01-.842.636a.562.562,0,0,1-.367-.188,3.161,3.161,0,0,1-.33-.377l-.216-.29a.808.808,0,0,0-.522-.349.791.791,0,0,0-.6.186l-.648.492L16.7,14.661l-.818.617-3.05-4.084,1.41-1.066a2.117,2.117,0,0,1,1.328-.5,1.334,1.334,0,0,1,1.057.59,1.12,1.12,0,0,1,.239.668,1.468,1.468,0,0,1-.211.736,1.1,1.1,0,0,1,.785-.036,1.408,1.408,0,0,1,.619.5l.225.3a1.851,1.851,0,0,0,.313.323.611.611,0,0,0,.355.154l-.1-5.307.988-.351,3.339,4.226-1.008.357-.7-.919Zm-5.637,0a.74.74,0,0,0-.5-.317.852.852,0,0,0-.621.21l-.593.448L15,12.4l.578-.437a.962.962,0,0,0,.4-.533A.684.684,0,0,0,15.832,10.868ZM19.825,8.69,19.8,8.7l.073,1.88,1.087-.385Zm-.37-2.08.076.214-.72.256L18.6,6.648a1.026,1.026,0,0,0,.327-.183.139.139,0,0,0,.035-.179l-.008-.02a.157.157,0,0,0-.165-.128.969.969,0,0,0-.363.07l-.134-.446a2.168,2.168,0,0,1,1-.161.559.559,0,0,1,.495.357.431.431,0,0,1-.025.381.73.73,0,0,1-.3.273ZM14.814,16.622l-.609.826-3.427-2.6-.856,1.161-.627-.475,2.335-3.164.627.475-.87,1.177,3.428,2.6ZM12.267,21.57,7.493,19.884l.327-.978L12.6,20.592l-.328.978ZM9,21.86l.9.093a2.1,2.1,0,0,1,1.937,2.37,2.024,2.024,0,0,1-2.322,1.919l-.9-.093A2.13,2.13,0,0,1,7.143,25.4a2.292,2.292,0,0,1,.276-3.1A2.063,2.063,0,0,1,9,21.86ZM7.461,23.878a.99.99,0,0,0,.3.853,1.555,1.555,0,0,0,.934.39l.91.093a1.521,1.521,0,0,0,1-.192.972.972,0,0,0,.449-.78,1.012,1.012,0,0,0-.3-.865,1.549,1.549,0,0,0-.945-.4L8.9,22.887a1.488,1.488,0,0,0-.989.2,1,1,0,0,0-.449.791Zm-1.627-.161.477.617-.081.9-.023.009L5.43,24.117l.079-.883.964-.941.019.013-.081.9-.577.51Zm-.236-1.2a.947.947,0,0,0-.025-.318.114.114,0,0,0-.121-.093l-.021,0a.133.133,0,0,0-.159.08.855.855,0,0,0-.073.306l-.382-.065a1.9,1.9,0,0,1,.226-.826.452.452,0,0,1,.441-.249.366.366,0,0,1,.282.159.611.611,0,0,1,.1.329l.19.019L6,22.509Zm3.16,4.935.812-.179a2,2,0,0,1,1.612.273,2.2,2.2,0,0,1,.921,1.4l.4,1.762-2.2.485.107.472L9.8,31.8,9.7,31.324l-2.1.465-.4-1.762a2.161,2.161,0,0,1,.227-1.653,1.982,1.982,0,0,1,1.338-.926Zm-.807,2.41.173.749,1.341-.3-.193-.843.61-.135.193.843,1.443-.32-.172-.748a1.027,1.027,0,0,0-.547-.724,1.433,1.433,0,0,0-1-.1l-.819.18a1.415,1.415,0,0,0-.853.51A1.024,1.024,0,0,0,7.951,29.859ZM25.63,44.339A17.769,17.769,0,0,0,41.148,35.2l.431.2a18.211,18.211,0,0,1-32.56-1.337l.481-.093A17.77,17.77,0,0,0,25.63,44.339Zm0-7.319A11.39,11.39,0,1,1,37.016,25.539c0,.03,0,.061,0,.091A11.383,11.383,0,0,1,25.63,37.021Zm-8.76-5.11,2.137-.779.076.088c.046.049.09.105.142.158l.173.159.389.353c.071.062.14.13.219.191l.248.179.538.381c.2.117.409.228.624.346.108.059.216.122.33.176l.358.144.367.146a2.156,2.156,0,0,0,.383.128l.8.213c.287.046.583.083.879.121l.221.028h1.053l.438-.042a8.673,8.673,0,0,0,.87-.138,8.2,8.2,0,0,0,1.648-.552,7.806,7.806,0,0,0,2.584-1.864l.244-.264c.072-.093.144-.184.214-.275a5.4,5.4,0,0,0,.383-.535,5.507,5.507,0,0,0,.309-.517c.047-.084.091-.165.133-.244l.11-.24a7.612,7.612,0,0,0,.326-.815c.081-.227.117-.414.154-.537l.053-.191-.075.183c-.052.118-.108.3-.215.515a7.433,7.433,0,0,1-.407.757l-.133.219c-.051.071-.1.145-.159.22a4.558,4.558,0,0,1-.353.461,5.427,5.427,0,0,1-.421.467l-.232.235-.258.221a7.731,7.731,0,0,1-1.169.828,7.521,7.521,0,0,1-1.389.6,7.429,7.429,0,0,1-1.509.319c-.257.009-.512.047-.767.03l-.382-.008c-.123-.015-.245-.029-.365-.046-.136-.015-.27-.032-.4-.048l-.2-.024-.171-.047-.663-.176-.643-.253a1.618,1.618,0,0,1-.3-.142l-.285-.155-.276-.148c-.086-.055-.168-.119-.25-.175-.161-.118-.321-.224-.467-.334l-.389-.354-.182-.162c-.055-.055-.1-.117-.152-.172l-.109-.125,1.97-.718-4.936-4.138L16.87,31.911Zm12.559-4.779V26.38h-.546V23.337H27.9l-2.01,3.213.047.582h1.974v1.053h.972V27.132Zm-4.986,1.053V23.268l-1.972.173v.742h1v4h.97Zm8.107-8.179-.061-.072-.139-.157-.169-.155-.381-.346-.211-.189-.243-.177-.525-.371c-.185-.126-.4-.227-.606-.346l-.323-.174c-.108-.059-.23-.1-.346-.147-.237-.091-.477-.2-.729-.28l-.678-.178-.107-.028a2.6,2.6,0,0,0-.419-.076l-.432-.058c-.142-.016-.294-.043-.43-.048h-.981l-.054.006-.215.02c-.141.015-.286.026-.426.044l-.425.075c-.283.04-.557.136-.832.2-.268.1-.541.172-.795.292l-.381.167c-.123.061-.243.128-.364.192l-.028.016c-.233.118-.444.267-.658.4-.215.151-.421.307-.615.465-.063.057-.119.112-.181.166a4.155,4.155,0,0,0-.36.331,5.669,5.669,0,0,0-.468.511c-.071.084-.142.169-.209.252s-.124.172-.186.256l-.174.246-.149.247a4.431,4.431,0,0,0-.259.462,7.285,7.285,0,0,0-.353.781c-.093.218-.134.4-.177.517l-.06.185.08-.176c.058-.113.121-.289.237-.492a6.857,6.857,0,0,1,.434-.721,4.228,4.228,0,0,1,.3-.416l.171-.219.2-.216.2-.224c.076-.069.151-.141.228-.215a5.847,5.847,0,0,1,.5-.427,6.777,6.777,0,0,1,.558-.4c.089-.057.187-.109.281-.164.112-.066.22-.134.336-.2a7.228,7.228,0,0,1,.667-.3c.117-.045.231-.093.348-.135s.238-.072.358-.109c.238-.08.492-.116.735-.175.253-.028.5-.084.753-.089l.376-.022c.124,0,.25,0,.375.007l.185,0h.025l.011,0,.026,0,.1.011.4.048.393.048c.126.02.228.058.342.085l.327.086a1.72,1.72,0,0,1,.322.1l.628.247c.2.094.384.206.568.3a2.773,2.773,0,0,1,.267.15l.243.174c.156.118.318.213.453.332s.259.237.382.347l.177.159c.049.059.1.117.146.171l.044.051.047.052-1.975.721,4.936,4.136.375-2.134.74-4.209-2.144.781Zm-4.758,4.826.1-.216.021,0V26.38H26.773Zm10.974,10.4q.29-.44.553-.9l.414.2.448.212a16.664,16.664,0,0,1-29.6-.979l.45-.087.512-.1c.193.385.4.759.627,1.126a15.739,15.739,0,0,0,12.3,7.585c.384.027.771.043,1.162.043a16.676,16.676,0,0,0,9.783-3.191,16.132,16.132,0,0,0,3.422-3.866ZM32.4,40.782a15.521,15.521,0,0,1-1.8.776c-.291.091-.6.149-.9.225A15.773,15.773,0,0,0,32.4,40.782Zm6.494-10.767,4.747,1.76-.344.972-4.748-1.76.345-.972Zm5.845,2.934-.382,1.082h-.023l-.521-1.236.291-.83Z" fill-rule="evenodd"/>
</svg>
