<svg id="Group_5178" data-name="Group 5178" xmlns="http://www.w3.org/2000/svg" width="22.426" height="23.227" viewBox="0 0 22.426 23.227">
  <g id="plus_1_" data-name="plus (1)" transform="translate(9.612)">
    <g id="Group_5173" data-name="Group 5173">
      <g id="Group_5172" data-name="Group 5172">
        <path id="Path_5848" data-name="Path 5848" d="M6.407,0a6.407,6.407,0,1,0,6.407,6.407A6.414,6.414,0,0,0,6.407,0Zm0,11.822a5.415,5.415,0,1,1,5.415-5.415A5.421,5.421,0,0,1,6.407,11.822Z" fill="#fff"/>
      </g>
    </g>
    <g id="Group_5175" data-name="Group 5175" transform="translate(3.43 3.385)">
      <g id="Group_5174" data-name="Group 5174">
        <path id="Path_5849" data-name="Path 5849" d="M142.481,137.72H140.5v-1.985a.5.5,0,1,0-.993,0v1.985h-1.985a.5.5,0,1,0,0,.993H139.5V140.7a.5.5,0,0,0,.993,0v-1.985h1.985a.5.5,0,0,0,0-.993Z" transform="translate(-137.022 -135.238)" fill="#fff"/>
      </g>
    </g>
  </g>
  <g id="Group_5177" data-name="Group 5177" transform="translate(0 4.004)">
    <path id="Path_5850" data-name="Path 5850" d="M2502.241,374.676a1.407,1.407,0,0,0,1.1,2.286h12.136a.437.437,0,0,0,0-.874h-12.136a.533.533,0,0,1-.417-.867l1.4-1.755h8.57a1.757,1.757,0,0,0,1.582-1l.75-1.6.52-1.1a5.388,5.388,0,0,1-1.037.15c-.086,0-.169.014-.256.014a5.411,5.411,0,0,1-5.4-5.2c0-.074-.011-.145-.011-.219a5.509,5.509,0,0,1,.043-.655h-7.188l-.142-.489a1.756,1.756,0,0,0-1.678-1.258h-1.2a.437.437,0,0,0,0,.874h1.2a.881.881,0,0,1,.839.63l2.723,9.323Zm-.093-9.946h5.909a6.4,6.4,0,0,0,6.184,6.178l-.556,1.184a.882.882,0,0,1-.791.5h-8.451Z" transform="translate(-2498.435 -362.109)" fill="#fff"/>
    <path id="Path_5851" data-name="Path 5851" d="M2504.546,381.745a1.748,1.748,0,1,0,1.748,1.748A1.748,1.748,0,0,0,2504.546,381.745Zm0,2.621a.874.874,0,1,1,.874-.874A.874.874,0,0,1,2504.546,384.366Z" transform="translate(-2499.303 -366.018)" fill="#fff"/>
    <path id="Path_5852" data-name="Path 5852" d="M2517.637,381.745a1.748,1.748,0,1,0,1.748,1.748A1.748,1.748,0,0,0,2517.637,381.745Zm0,2.621a.874.874,0,1,1,.874-.874A.875.875,0,0,1,2517.637,384.366Z" transform="translate(-2501.91 -366.018)" fill="#fff"/>
  </g>
</svg>
