<svg xmlns="http://www.w3.org/2000/svg" width="19.685" height="24" viewBox="0 0 19.685 24"><defs><style>.a{fill:#272727;}</style></defs><path class="a" d="M52.549,136.429c-3.572-.021-6.527-7.312-6.527-11.025,0-6.066,4.55-7.394,6.3-7.394a7.254,7.254,0,0,1,2.379.585,5.316,5.316,0,0,0,1.358.389,4.226,4.226,0,0,0,.974-.316,7.809,7.809,0,0,1,2.937-.71h.007a6.019,6.019,0,0,1,5.037,2.544l.367.552-.529.4a4.449,4.449,0,0,0-2.133,3.669,4.141,4.141,0,0,0,2.311,3.828c.331.2.674.4.674.854,0,.293-2.34,6.589-5.738,6.589a4.615,4.615,0,0,1-1.938-.47,3.929,3.929,0,0,0-1.725-.415,4.436,4.436,0,0,0-1.366.369,6.69,6.69,0,0,1-2.369.553Z" transform="translate(-46.022 -112.429)"/><path class="a" d="M259.663,0c.089,3.191-2.194,5.4-4.473,5.266C254.815,2.719,257.469,0,259.663,0Z" transform="translate(-245.351)"/></svg>