<svg xmlns="http://www.w3.org/2000/svg" width="32.009" height="32" viewBox="0 0 32.009 32"><defs><style>.a{fill:#fff;}</style></defs><path class="a" d="M7.094,148.967,5.98,153.127l-4.072.086a16.032,16.032,0,0,1-.118-14.945h0l3.626.665L7,142.536a9.551,9.551,0,0,0,.09,6.431Z" transform="translate(0 -129.628)"/><path class="a" d="M277,208.176a16,16,0,0,1-5.705,15.471h0l-4.567-.233-.646-4.035a9.539,9.539,0,0,0,4.1-4.871h-8.558v-6.331H277Z" transform="translate(-245.272 -195.17)"/><path class="a" d="M54.625,318.55h0a16.01,16.01,0,0,1-24.117-4.9l5.186-4.246a9.518,9.518,0,0,0,13.716,4.873Z" transform="translate(-28.602 -290.074)"/><path class="a" d="M53.054,3.685,47.87,7.929a9.517,9.517,0,0,0-14.031,4.983L28.625,8.644h0a16.008,16.008,0,0,1,24.43-4.96Z" transform="translate(-26.835)"/></svg>