<svg xmlns="http://www.w3.org/2000/svg" width="16" height="15.333" viewBox="0 0 16 15.333"><defs><style>.a{fill:#707070;}</style></defs><g transform="translate(0 -10.667)"><g transform="translate(0 17.334)"><path class="a" d="M1.667,224A1.669,1.669,0,0,0,0,225.667V231a1.669,1.669,0,0,0,1.667,1.667h2a1.655,1.655,0,0,0,1-.337V224Z" transform="translate(0 -224)"/></g><g transform="translate(5.333 10.667)"><path class="a" d="M181.334,19.834a1.478,1.478,0,0,0-.434-1.049,1.655,1.655,0,0,0,.427-1.273A1.723,1.723,0,0,0,179.588,16H175.47A9.585,9.585,0,0,0,176,13.334c0-1.446-1.229-2.667-2-2.667a2.1,2.1,0,0,0-1.209.406.335.335,0,0,0-.125.261v2.261l-1.92,4.159-.08.041V24.94a4.368,4.368,0,0,0,1.667.394h6.119a1.533,1.533,0,0,0,1.511-1.165,1.5,1.5,0,0,0-.121-1,1.493,1.493,0,0,0,.667-2A1.492,1.492,0,0,0,181.334,19.834Z" transform="translate(-170.667 -10.667)"/></g></g></svg>