<svg xmlns="http://www.w3.org/2000/svg" width="19.311" height="20" viewBox="0 0 19.311 20">
  <g id="Group_5178" data-name="Group 5178" transform="translate(-944 -763)">
    <g id="plus_1_" data-name="plus (1)" transform="translate(952.288 763)">
      <g id="Group_5173" data-name="Group 5173">
        <g id="Group_5172" data-name="Group 5172">
          <path id="Path_5848" data-name="Path 5848" d="M5.511,0a5.511,5.511,0,1,0,5.511,5.511A5.517,5.517,0,0,0,5.511,0Zm0,10.169a4.657,4.657,0,1,1,4.657-4.657A4.663,4.663,0,0,1,5.511,10.169Z" fill="#c73030"/>
        </g>
      </g>
      <g id="Group_5175" data-name="Group 5175" transform="translate(2.95 2.911)">
        <g id="Group_5174" data-name="Group 5174">
          <path id="Path_5849" data-name="Path 5849" d="M141.718,137.372H140.01v-1.708a.427.427,0,0,0-.854,0v1.708h-1.708a.427.427,0,0,0,0,.854h1.708v1.708a.427.427,0,0,0,.854,0v-1.708h1.708a.427.427,0,0,0,0-.854Z" transform="translate(-137.022 -135.238)" fill="#c73030"/>
        </g>
      </g>
    </g>
    <g id="Group_5177" data-name="Group 5177" transform="translate(944 766.466)">
      <path id="Path_5850" data-name="Path 5850" d="M2501.708,372.919a1.21,1.21,0,0,0,.942,1.966h10.439a.376.376,0,0,0,0-.752h-10.439a.459.459,0,0,1-.358-.745l1.208-1.509h7.371a1.511,1.511,0,0,0,1.361-.863l.645-1.372.448-.95a4.639,4.639,0,0,1-.892.129c-.074,0-.146.012-.221.012a4.654,4.654,0,0,1-4.648-4.47c0-.063-.009-.125-.009-.188a4.757,4.757,0,0,1,.037-.564h-6.183l-.123-.421a1.51,1.51,0,0,0-1.443-1.082h-1.033a.376.376,0,0,0,0,.752h1.033a.758.758,0,0,1,.722.541l2.342,8.019Zm-.08-8.555h5.083a5.5,5.5,0,0,0,5.319,5.314l-.479,1.018a.758.758,0,0,1-.681.431H2503.6Z" transform="translate(-2498.435 -362.109)" fill="#c73030"/>
      <path id="Path_5851" data-name="Path 5851" d="M2504.3,381.745a1.5,1.5,0,1,0,1.5,1.5A1.5,1.5,0,0,0,2504.3,381.745Zm0,2.255a.752.752,0,1,1,.752-.752A.752.752,0,0,1,2504.3,384Z" transform="translate(-2499.792 -368.218)" fill="#c73030"/>
      <path id="Path_5852" data-name="Path 5852" d="M2517.392,381.745a1.5,1.5,0,1,0,1.5,1.5A1.5,1.5,0,0,0,2517.392,381.745Zm0,2.255a.752.752,0,1,1,.751-.752A.752.752,0,0,1,2517.392,384Z" transform="translate(-2503.865 -368.218)" fill="#c73030"/>
    </g>
  </g>
</svg>
