<svg xmlns="http://www.w3.org/2000/svg" width="19.228" height="19.228" viewBox="0 0 19.228 19.228"><g transform="translate(0)"><path d="M17.82,1.748H3.5v.126l-.179-.615A1.757,1.757,0,0,0,1.638,0H.437a.437.437,0,1,0,0,.874h1.2a.881.881,0,0,1,.839.63L5.2,10.829,3.807,12.571a1.408,1.408,0,0,0,1.1,2.287h12.14a.437.437,0,1,0,0-.874H4.9a.534.534,0,0,1-.417-.867l1.4-1.755h8.572a1.756,1.756,0,0,0,1.582-1l3.048-6.48a1.419,1.419,0,0,0,.134-.6V3.156A1.408,1.408,0,0,0,17.82,1.748Z" transform="translate(0)"/><path d="M87.081,384a1.748,1.748,0,1,0,1.748,1.748A1.748,1.748,0,0,0,87.081,384Zm0,2.622a.874.874,0,1,1,.874-.874.874.874,0,0,1-.874.874Z" transform="translate(-81.836 -368.268)"/><path d="M343.081,384a1.748,1.748,0,1,0,1.748,1.748A1.748,1.748,0,0,0,343.081,384Zm0,2.622a.874.874,0,1,1,.874-.874.874.874,0,0,1-.874.874Z" transform="translate(-327.348 -368.268)"/></g></svg>