<svg xmlns="http://www.w3.org/2000/svg" width="47.998" height="48" viewBox="0 0 47.998 48">
  <path id="Path_4917" data-name="Path 4917" d="M45.8,24l2.106-5.493a1.5,1.5,0,0,0-.456-1.7l-4.566-3.7-.924-5.811a1.5,1.5,0,0,0-1.248-1.245L34.9,5.124,31.206.555A1.5,1.5,0,0,0,29.505.1l-5.5,2.109L18.517.1a1.5,1.5,0,0,0-1.7.456l-3.7,4.569L7.3,6.05A1.5,1.5,0,0,0,6.059,7.3l-.924,5.811-4.569,3.7a1.5,1.5,0,0,0-.456,1.7L2.216,24,.11,29.494a1.5,1.5,0,0,0,.456,1.7l4.569,3.7L6.059,40.7A1.5,1.5,0,0,0,7.3,41.952l5.811.924,3.7,4.566a1.493,1.493,0,0,0,1.7.456l5.49-2.1L29.5,47.9a1.5,1.5,0,0,0,1.7-.459l3.7-4.566,5.811-.924A1.5,1.5,0,0,0,41.963,40.7l.924-5.811,4.566-3.7a1.5,1.5,0,0,0,.456-1.7Z" transform="translate(-0.01 0)" fill="#b40009"/>
</svg>
