<svg xmlns="http://www.w3.org/2000/svg" xmlns:xlink="http://www.w3.org/1999/xlink" width="19.228" height="19.228" viewBox="0 0 19.228 19.228"><defs><style>.a{fill:url(#a);}.b{fill:url(#b);}.c{fill:url(#c);}.d{fill:url(#d);}.e{fill:#fff;}</style><linearGradient id="a" x1="0.332" y1="0.141" x2="0.585" y2="0.682" gradientUnits="objectBoundingBox"><stop offset="0" stop-color="#3457a0"/><stop offset="1" stop-color="#3b5998"/></linearGradient><linearGradient id="b" x1="0.714" y1="0.647" x2="-0.271" y2="-0.03" gradientUnits="objectBoundingBox"><stop offset="0" stop-color="#3457a0" stop-opacity="0"/><stop offset="1" stop-color="#1f3f77"/></linearGradient><linearGradient id="c" x1="0.5" y1="0.177" x2="0.5" y2="0.855" xlink:href="#b"/><linearGradient id="d" x1="1.26" y1="0.791" x2="0.043" y2="0.371" gradientUnits="objectBoundingBox"><stop offset="0" stop-color="#3457a0" stop-opacity="0"/><stop offset="0.325" stop-color="#2a4c8d" stop-opacity="0.325"/><stop offset="0.705" stop-color="#22427d" stop-opacity="0.706"/><stop offset="1" stop-color="#1f3f77"/></linearGradient></defs><path class="a" d="M15.789,18.9a58.076,58.076,0,0,1-12.35,0,3.5,3.5,0,0,1-3.11-3.11,58.076,58.076,0,0,1,0-12.349A3.5,3.5,0,0,1,3.439.329a58.076,58.076,0,0,1,12.349,0,3.5,3.5,0,0,1,3.11,3.11,58.075,58.075,0,0,1,0,12.349,3.5,3.5,0,0,1-3.11,3.11Zm0,0" transform="translate(0 0.001)"/><path class="b" d="M45.6,31.886a3.107,3.107,0,0,0-2.76-2.76,51.555,51.555,0,0,0-10.959,0,3.107,3.107,0,0,0-2.76,2.76,51.553,51.553,0,0,0,0,10.959,3.107,3.107,0,0,0,2.76,2.76,51.534,51.534,0,0,0,10.959,0,3.107,3.107,0,0,0,2.76-2.76A51.534,51.534,0,0,0,45.6,31.886Zm0,0" transform="translate(-27.751 -27.751)"/><path class="c" d="M7.672,409.8q.02.2.041.4a3.5,3.5,0,0,0,3.11,3.11,58.074,58.074,0,0,0,12.35,0,3.5,3.5,0,0,0,3.11-3.11q.021-.2.041-.4Zm0,0" transform="translate(-7.384 -394.415)"/><path class="d" d="M224.642,85.269a3.033,3.033,0,0,0-3.033,3.033v2.266h-1.632v2.805l1.632,1.462v6.458a58.207,58.207,0,0,0,5.9-.328,3.5,3.5,0,0,0,3.11-3.11,58.066,58.066,0,0,0,.251-9.19l-3.4-3.4Zm0,0" transform="translate(-211.716 -82.067)"/><path class="e" d="M221.609,101.295q1.681-.008,3.36-.114V93.375h2.23l.269-2.805h-2.5V88.788a.712.712,0,0,1,.712-.712h1.786V85.27h-2.826a3.033,3.033,0,0,0-3.033,3.033v2.266h-1.632v2.805h1.632Zm0,0" transform="translate(-211.715 -82.068)"/></svg>