<svg xmlns="http://www.w3.org/2000/svg" width="32" height="32" viewBox="0 0 32 32">
  <path id="facebook" d="M27.69,0H4.314A4.312,4.312,0,0,0,0,4.312V27.688A4.312,4.312,0,0,0,4.314,32H15.843l.02-11.435H12.892a.7.7,0,0,1-.7-.7l-.014-3.686a.7.7,0,0,1,.7-.7h2.965V11.915c0-4.133,2.524-6.384,6.211-6.384H25.08a.7.7,0,0,1,.7.7V9.341a.7.7,0,0,1-.7.7H23.223c-2.005,0-2.393.953-2.393,2.351v3.083h4.406a.7.7,0,0,1,.7.784L25.5,19.946a.7.7,0,0,1-.7.618H20.85L20.83,32h6.86A4.312,4.312,0,0,0,32,27.688V4.312A4.312,4.312,0,0,0,27.69,0Z" transform="translate(-0.002)" fill="#fff"/>
</svg>
