<svg xmlns="http://www.w3.org/2000/svg" width="19.222" height="17.924" viewBox="0 0 19.222 17.924"><defs><style>.a{fill:#f7434c;}.b{fill:#db2e37;}.c{fill:#ffdb57;}.d{fill:#f5ba3d;}.e{fill:#ef9325;}</style></defs><path class="a" d="M51.063,227.716H35.058a.3.3,0,0,0-.3.3v9.417a.3.3,0,0,0,.3.3H51.063a.3.3,0,0,0,.3-.3V228.02A.3.3,0,0,0,51.063,227.716Z" transform="translate(-33.449 -219.816)"/><path class="b" d="M51.063,227.716H35.058a.3.3,0,0,0-.3.3v1.214H51.367v-1.214A.3.3,0,0,0,51.063,227.716Z" transform="translate(-33.449 -219.816)"/><path class="c" d="M210.022,227.716h-3.1a.3.3,0,0,0-.3.3v9.417a.3.3,0,0,0,.3.3h3.1a.3.3,0,0,0,.3-.3V228.02A.3.3,0,0,0,210.022,227.716Z" transform="translate(-198.861 -219.816)"/><path class="d" d="M210.022,227.716h-3.1a.3.3,0,0,0-.3.3v1.208h3.708v-1.208A.3.3,0,0,0,210.022,227.716Z" transform="translate(-198.861 -219.816)"/><path class="c" d="M288.219,19.576a6.133,6.133,0,0,0-1.256-2.027.926.926,0,0,0-.7-.267c-.911.021-2.4,1.165-4.413,3.4a.3.3,0,0,0-.078.2V22.49a.3.3,0,0,0,.3.3h4.669a1.594,1.594,0,0,0,1.647-.931A3.207,3.207,0,0,0,288.219,19.576Z" transform="translate(-271.196 -17.282)"/><path class="e" d="M319.522,79.021a.3.3,0,0,0-.04-.088c-.458-.693-1.449-.434-2.2-.094a7.5,7.5,0,0,0-3.116,2.4.3.3,0,0,0,.255.469h3.454a1.727,1.727,0,0,0,1.459-.6A2.37,2.37,0,0,0,319.522,79.021Z" transform="translate(-302.325 -76.199)"/><path class="c" d="M56.859,20.682c-2.017-2.234-3.5-3.378-4.413-3.4a.925.925,0,0,0-.7.267,6.133,6.133,0,0,0-1.256,2.027,3.208,3.208,0,0,0-.175,2.287,1.594,1.594,0,0,0,1.647.931h4.669a.3.3,0,0,0,.3-.3V20.886A.3.3,0,0,0,56.859,20.682Z" transform="translate(-48.294 -17.283)"/><path class="e" d="M55.631,81.243a7.5,7.5,0,0,0-3.116-2.4c-.75-.339-1.74-.6-2.2.094a.3.3,0,0,0-.04.088,2.37,2.37,0,0,0,.186,2.085,1.726,1.726,0,0,0,1.459.6h3.454a.3.3,0,0,0,.255-.469Z" transform="translate(-48.251 -76.2)"/><path class="d" d="M216.9,97.175h-2.542a.3.3,0,0,0-.3.3v1.905a.3.3,0,0,0,.3.3H216.9a.3.3,0,0,0,.3-.3V97.479A.3.3,0,0,0,216.9,97.175Z" transform="translate(-206.019 -94.176)"/><path class="a" d="M18.919,147.943H.3a.3.3,0,0,0-.3.3v2.995a.3.3,0,0,0,.3.3H18.919a.3.3,0,0,0,.3-.3v-2.995A.3.3,0,0,0,18.919,147.943Z" transform="translate(0 -143.037)"/><rect class="c" width="4.663" height="3.602" transform="translate(7.28 4.905)"/></svg>