<svg xmlns="http://www.w3.org/2000/svg" width="31.999" height="32" viewBox="0 0 31.999 32"><defs><style>.a{fill:#fff;}</style></defs><path class="a" d="M35.14,10.346l.031.238-.356.074-.047.506h.426l.567-.055.293-.348-.311-.121-.17-.2-.256-.415-.122-.586-.481.1-.135.207V9.98l.232.159Z" transform="translate(-11.822 -3.228)"/><path class="a" d="M34.318,10.883l.026-.317-.282-.122-.395.091-.293.47v.3h.342Z" transform="translate(-11.411 -3.571)"/><path class="a" d="M22.2,13.156l-.087.224h-.421V13.6h.1s.006.046.014.107l.258-.022.161-.1.042-.2.209-.018.082-.17-.192-.039Z" transform="translate(-7.415 -4.497)"/><path class="a" d="M20.8,13.668l-.016.213.3-.026.032-.213L20.94,13.5Z" transform="translate(-7.107 -4.615)"/><path class="a" d="M32,15.834c0-.468-.028-.933-.072-1.39a15.9,15.9,0,0,0-1.059-4.357c-.041-.1-.078-.205-.122-.306a16.019,16.019,0,0,0-3-4.636c-.082-.088-.166-.175-.249-.261-.236-.245-.479-.485-.73-.715a15.967,15.967,0,0,0-21.595.068,16.19,16.19,0,0,0-1.83,2A15.992,15.992,0,1,0,30.246,23.268a15.848,15.848,0,0,0,1.306-3.523c.076-.314.141-.629.2-.948A16,16,0,0,0,32,16C32,15.944,32,15.89,32,15.834ZM28.985,9.44l.093-.1c.122.236.236.476.344.72l-.151-.006-.286.039ZM26.673,6.648l0-.715q.377.4.725.825l-.288.429L26.1,7.179l-.063-.21ZM7.372,4.872V4.845h.32l.028-.11h.525v.229l-.151.2H7.371V4.872Zm.512.714s.32-.055.348-.055,0,.32,0,.32L7.51,5.9l-.138-.165ZM30,11.937H28.833l-.713-.531-.751.073v.458h-.238l-.257-.183-1.3-.33v-.842l-1.648.128-.511.274h-.654l-.32-.032-.794.441v.83l-1.624,1.171.135.5h.329l-.086.476-.232.085L20.157,15.7l1.4,1.6h.611l.037-.1h1.1l.317-.293h.623l.342.342.928.1-.123,1.234,1.03,1.818-.542,1.037.037.488.427.426v1.174l.561.754v.975h.484a14.678,14.678,0,0,1-24.9-15V9.8l.525-.638q.273-.516.586-1.007l.024.267-.609.74c-.189.357-.365.721-.525,1.1v.836l.61.294v1.162l.585,1,.476.073.061-.342-.561-.866-.11-.842h.329l.139.866.811,1.184L4.62,14l.516.789,1.281.317V14.9l.513.073-.049.366.4.074.622.17.879,1,1.122.085.11.915-.768.537-.036.817-.11.5,1.111,1.391.085.476s.4.109.452.109.9.647.9.647v2.513l.3.086-.207,1.16.513.684-.095,1.149.677,1.191.869.759.874.016.086-.281-.642-.541.037-.269.115-.329.024-.336-.434-.013-.219-.275.361-.347.049-.262-.4-.115.024-.243.574-.087.873-.419.293-.537.915-1.171-.208-.916.281-.488.842.026.567-.449L17.9,20.8l.628-.8.11-.513-.573-.184-.378-.621L16.4,18.667l-1.025-.391-.049-.731-.342-.6-.927-.014-.536-.841-.476-.232-.024.257-.866.051-.317-.442-.9-.184-.744.86-1.171-.2-.085-1.32-.855-.146.343-.648-.1-.372L7.2,14.469l-.707-.086-.252-.552.154-.569.39-.718.9-.454H9.411l0,.528.623.29L9.98,12l.449-.451.906-.595.062-.419.9-.94.96-.532L13.174,9l.65-.612.238.063.109.137.247-.274.061-.027-.27-.038-.274-.091V7.892l.145-.119h.32l.147.064.127.257.155-.024V8.048l.045.015.45-.069.064-.22.257.064v.238l-.238.164h0l.035.261.815.251,0,.01.188-.016.013-.353L15.813,8.1l-.037-.17.536-.183.024-.513-.561-.342-.037-.865L14.97,6.4h-.28l.074-.659L13.717,5.5l-.433.327v1l-.779.247-.312.65-.338.055V6.944l-.732-.1L10.758,6.6l-.147-.539L11.919,5.3l.64-.195.064.43.357-.018.028-.217.373-.053.007-.076L13.228,5.1l-.037-.229.459-.039.277-.288.015-.021h0l.084-.087.964-.122.426.362-1.118.6,1.423.336.184-.476h.622l.22-.415-.44-.11V4.088l-1.379-.611-.952.11-.537.281.037.683-.561-.086-.086-.378.538-.488-.976-.049-.28.085-.122.329.366.062-.073.366-.622.037-.1.243-.9.025a2.473,2.473,0,0,0-.061-.512l.707-.013.538-.525L11.554,3.5l-.39.379-.648-.037-.39-.537H9.3l-.866.647h.794l.072.232-.206.192.879.024.134.317-.989-.037-.048-.244L8.444,4.3l-.33-.183-.74.006a14.642,14.642,0,0,1,18.319.858l-.174.312-.677.265-.286.31.066.361.349.049.211.526.6-.243.1.7H25.7L25.208,7.2l-.549.092-.531.75-.759.119-.11.65.32.076-.093.418-.754-.151L22.04,9.3l-.147.385.12.808.406.19.681,0,.46-.041.14-.366.719-.934.473.1.466-.421.087.329,1.146.773-.14.188-.517-.028.2.282.318.07.372-.155-.008-.449.165-.083L26.848,9.8l-.765-.426-.2-.567h.636l.2.2.548.472.023.571.567.6.211-.828.393-.215.074.677.384.421.765-.013q.222.572.4,1.164ZM8.727,7.269l.384-.183.347.083-.12.467-.375.119Zm2.039,1.1v.3H9.889L9.56,8.578l.082-.211.422-.174h.576v.174Zm.4.421v.293l-.22.141-.274.051V8.789Zm-.247-.119V8.322l.3.275Zm.138.7v.285l-.21.211h-.467l.073-.32.22-.019.045-.11ZM9.9,8.789h.485l-.622.869L9.5,9.521l.055-.366Zm1.986.485v.284h-.467l-.128-.184V9.109h.037Zm-.431-.391.133-.14.224.14-.18.148Zm18.789,3.8.046-.054c.019.083.039.166.058.25Z"/><path class="a" d="M3.782,14.553v.458c.16-.374.336-.738.525-1.1Z" transform="translate(-1.293 -4.758)"/></svg>