<svg xmlns="http://www.w3.org/2000/svg" width="21.197" height="24" viewBox="0 0 21.197 24"><defs><style>.a{fill:#272727;}</style></defs><path class="a" d="M33.1.306a2.082,2.082,0,0,0-2-.1l10.775,10.8L45.4,7.469Zm-2.988.9a2.2,2.2,0,0,0-.209.938V21.9a2.112,2.112,0,0,0,.211.928L40.884,12.006ZM41.878,13,31.12,23.81a2.112,2.112,0,0,0,.893.19,2.089,2.089,0,0,0,1.087-.293l12.3-7.174Zm8.207-2.8-.013-.008L46.656,8.2,42.87,12l3.788,3.8,3.426-2a2.11,2.11,0,0,0,0-3.606Z" transform="translate(-29.902 0)"/></svg>