<svg xmlns="http://www.w3.org/2000/svg" width="48" height="30.712" viewBox="0 0 48 30.712">
  <g id="google-plus" transform="translate(0 -82.52)">
    <path id="Path_12390" data-name="Path 12390" d="M16.841,101.044h7.5a9.533,9.533,0,1,1-2.588-10.223,1.033,1.033,0,0,0,1.4,0l2.754-2.592a1.03,1.03,0,0,0,0-1.5,15.3,15.3,0,0,0-10.252-4.2A15.356,15.356,0,1,0,30.687,98.739c.012-.1.02-3.525.02-3.525H16.841a1.029,1.029,0,0,0-1.029,1.029v3.771A1.029,1.029,0,0,0,16.841,101.044Z" transform="translate(0)" fill="#fff"/>
    <path id="Path_12391" data-name="Path 12391" d="M333.35,167.794V164.11a.9.9,0,0,0-.9-.9h-3.1a.9.9,0,0,0-.9.9v3.684h-3.684a.9.9,0,0,0-.9.9v3.1a.9.9,0,0,0,.9.9h3.684v3.684a.9.9,0,0,0,.9.9h3.1a.9.9,0,0,0,.9-.9V172.7h3.684a.9.9,0,0,0,.9-.9v-3.1a.9.9,0,0,0-.9-.9Z" transform="translate(-289.936 -72.237)" fill="#fff"/>
  </g>
</svg>
