<svg xmlns="http://www.w3.org/2000/svg" width="19.97" height="15.892" viewBox="0 0 19.97 15.892"><g transform="translate(0.001 -46.994)"><g transform="translate(-0.001 46.994)"><path d="M72.833,120.939l-7.122,5.872a.169.169,0,0,1-.006.037.169.169,0,0,0-.006.037v5.946a.8.8,0,0,0,.793.793h4.756v-4.757h3.171v4.757h4.756a.805.805,0,0,0,.793-.793v-5.946a.174.174,0,0,0-.012-.074Z" transform="translate(-62.848 -117.731)"/><path d="M19.832,54.736l-2.713-2.254V47.428a.382.382,0,0,0-.4-.4H14.345a.381.381,0,0,0-.4.4v2.415l-3.022-2.527a1.537,1.537,0,0,0-1.883,0L.137,54.736A.36.36,0,0,0,0,55a.4.4,0,0,0,.087.291l.768.917a.422.422,0,0,0,.26.136.46.46,0,0,0,.3-.087l8.572-7.147,8.572,7.147a.382.382,0,0,0,.26.086h.037a.423.423,0,0,0,.26-.136l.768-.917A.4.4,0,0,0,19.968,55,.361.361,0,0,0,19.832,54.736Z" transform="translate(0.001 -46.994)"/></g></g></svg>