<svg xmlns="http://www.w3.org/2000/svg" width="20.373" height="19.172" viewBox="0 0 20.373 19.172"><defs><style>.a{fill:none;stroke:#c73030;}</style></defs><g transform="translate(0.507 -1.326)"><path class="a" d="M19.328,7.193c-.283-3.11-2.484-5.367-5.239-5.367A5.208,5.208,0,0,0,9.627,4.4,5.019,5.019,0,0,0,5.272,1.826C2.517,1.826.315,4.083.033,7.193A5.534,5.534,0,0,0,.2,9.233a8.748,8.748,0,0,0,2.68,4.473l6.745,6.121,6.86-6.12a8.749,8.749,0,0,0,2.68-4.473A5.547,5.547,0,0,0,19.328,7.193Z" transform="translate(0)"/></g></svg>