<svg xmlns="http://www.w3.org/2000/svg" xmlns:xlink="http://www.w3.org/1999/xlink" width="19.228" height="19.228" viewBox="0 0 19.228 19.228"><defs><style>.a{fill:url(#a);}.b{fill:url(#b);}.c{fill:url(#c);}.d{fill:url(#d);}.e{fill:url(#e);}.f{fill:url(#f);}.g{fill:url(#g);}.h{fill:#fff;}</style><radialGradient id="a" cx="0.205" cy="0.874" r="1.103" gradientTransform="translate(0)" gradientUnits="objectBoundingBox"><stop offset="0" stop-color="#fae100"/><stop offset="0.054" stop-color="#fadc04"/><stop offset="0.117" stop-color="#fbce0e"/><stop offset="0.183" stop-color="#fcb720"/><stop offset="0.251" stop-color="#fe9838"/><stop offset="0.305" stop-color="#ff7950"/><stop offset="0.492" stop-color="#ff1c74"/><stop offset="1" stop-color="#6c1cd1"/></radialGradient><linearGradient id="b" x1="0.5" y1="0.413" x2="0.5" y2="1.193" gradientUnits="objectBoundingBox"><stop offset="0" stop-color="#fae100" stop-opacity="0"/><stop offset="0.307" stop-color="#fca800" stop-opacity="0.306"/><stop offset="0.627" stop-color="#fe7300" stop-opacity="0.627"/><stop offset="0.868" stop-color="#ff5200" stop-opacity="0.867"/><stop offset="1" stop-color="#ff4500"/></linearGradient><linearGradient id="c" x1="0.316" y1="0.311" x2="0.012" y2="0.005" gradientUnits="objectBoundingBox"><stop offset="0" stop-color="#833ab4" stop-opacity="0"/><stop offset="1" stop-color="#833ab4"/></linearGradient><linearGradient id="d" x1="0.582" y1="0.887" x2="0.418" y2="0.113" xlink:href="#c"/><linearGradient id="e" x1="0.605" y1="0.605" x2="-0.16" y2="-0.16" xlink:href="#c"/><linearGradient id="f" x1="0.376" y1="0.332" x2="-0.072" y2="-0.063" xlink:href="#c"/><linearGradient id="g" x1="0.816" y1="0.182" x2="0.172" y2="0.835" gradientUnits="objectBoundingBox"><stop offset="0" stop-color="#833ab4"/><stop offset="0.092" stop-color="#9c3495"/><stop offset="0.293" stop-color="#dc2546"/><stop offset="0.392" stop-color="#fd1d1d"/><stop offset="0.559" stop-color="#fc6831"/><stop offset="0.689" stop-color="#fc9b40"/><stop offset="0.752" stop-color="#fcaf45"/><stop offset="0.781" stop-color="#fdb750"/><stop offset="0.866" stop-color="#fecb6a"/><stop offset="0.942" stop-color="#ffd87a"/><stop offset="1" stop-color="#ffdc80"/></linearGradient></defs><path class="a" d="M18.9,3.439a3.5,3.5,0,0,0-3.11-3.11,58.076,58.076,0,0,0-12.35,0,3.5,3.5,0,0,0-3.11,3.11,58.076,58.076,0,0,0,0,12.35,3.5,3.5,0,0,0,3.11,3.11,58.077,58.077,0,0,0,12.35,0,3.5,3.5,0,0,0,3.11-3.11,58.075,58.075,0,0,0,0-12.35Zm0,0" transform="translate(0.001 0)"/><path class="b" d="M7.672,409.8q.02.2.041.4a3.5,3.5,0,0,0,3.11,3.11,58.074,58.074,0,0,0,12.35,0,3.5,3.5,0,0,0,3.11-3.11q.021-.2.041-.4Zm0,0" transform="translate(-7.384 -394.415)"/><path class="c" d="M110.418,109.452a58.124,58.124,0,0,0,.327-6.636l-4.4-4.4a3.148,3.148,0,0,0-2.293-1.052c-1.938-.07-3.882-.066-5.821,0a3.11,3.11,0,0,0-3.024,2.728c-.051.281-.081.565-.121.848v4.662c.022.151.055.3.065.453a3.389,3.389,0,0,0,1.1,2.356l4.473,4.472a58.127,58.127,0,0,0,6.582-.328,3.5,3.5,0,0,0,3.11-3.11Zm0,0" transform="translate(-91.519 -93.663)"/><path class="d" d="M140.411,137.794a3.5,3.5,0,0,1-3.11,3.11,58.167,58.167,0,0,1-6.582.328l-4.466-4.466a3.131,3.131,0,0,0,1.976.759c1.938.073,3.882.071,5.82,0a3.115,3.115,0,0,0,3.076-3.113c.058-1.861.058-3.727,0-5.588a3.244,3.244,0,0,0-.779-2.058l4.392,4.392a58.234,58.234,0,0,1-.327,6.636Zm0,0" transform="translate(-121.512 -122.005)"/><path class="e" d="M179.341,174.99a3.079,3.079,0,1,0-4.351,4.351l7.126,7.126q.566-.049,1.131-.11a3.5,3.5,0,0,0,3.11-3.11q.06-.565.11-1.131Zm0,0" transform="translate(-167.458 -167.458)"/><path class="f" d="M330.335,156.766l-5.735-5.735a.732.732,0,1,0-1.026,1.026l6.658,6.658q.068-.974.1-1.949Zm0,0" transform="translate(-311.145 -145.081)"/><path class="g" d="M95.09,100.944c.04-.283.071-.567.121-.848a3.11,3.11,0,0,1,3.024-2.728c1.938-.067,3.883-.07,5.821,0a3.115,3.115,0,0,1,3.076,3.113q.087,2.792,0,5.588a3.114,3.114,0,0,1-3.076,3.113c-1.938.07-3.883.072-5.821,0a3.169,3.169,0,0,1-3.081-3.122c-.01-.152-.043-.3-.065-.453v-4.662Zm6.045,7.2c.887,0,1.775.027,2.661-.006a2.164,2.164,0,0,0,2.275-2.268q.06-2.593,0-5.189a2.15,2.15,0,0,0-2.275-2.265q-2.643-.056-5.288,0a2.138,2.138,0,0,0-2.272,2.232q-.071,2.626,0,5.255a2.152,2.152,0,0,0,2.272,2.235c.875.033,1.751.006,2.627.006Zm0,0" transform="translate(-91.519 -93.662)"/><g transform="translate(3.571 3.655)"><path class="h" d="M95.09,100.944c.04-.283.071-.567.121-.848a3.11,3.11,0,0,1,3.024-2.728c1.938-.067,3.883-.07,5.821,0a3.115,3.115,0,0,1,3.076,3.113q.087,2.792,0,5.588a3.114,3.114,0,0,1-3.076,3.113c-1.938.07-3.883.072-5.821,0a3.169,3.169,0,0,1-3.081-3.122c-.01-.152-.043-.3-.065-.453v-4.662Zm6.045,7.2c.887,0,1.775.027,2.661-.006a2.164,2.164,0,0,0,2.275-2.268q.06-2.593,0-5.189a2.15,2.15,0,0,0-2.275-2.265q-2.643-.056-5.288,0a2.138,2.138,0,0,0-2.272,2.232q-.071,2.626,0,5.255a2.152,2.152,0,0,0,2.272,2.235c.875.033,1.751.006,2.627.006Zm0,0" transform="translate(-95.09 -97.317)"/><path class="h" d="M177.072,174a3.08,3.08,0,1,0,3.08,3.08A3.08,3.08,0,0,0,177.072,174Zm0,5.1a2.019,2.019,0,1,1,2.019-2.019A2.019,2.019,0,0,1,177.072,179.1Zm0,0" transform="translate(-171.029 -171.116)"/><path class="h" d="M324.751,151.475a.733.733,0,1,1-.733-.733A.733.733,0,0,1,324.751,151.475Zm0,0" transform="translate(-314.716 -148.736)"/></g></svg>