<svg id="instagram_1_" data-name="instagram (1)" xmlns="http://www.w3.org/2000/svg" width="32" height="32" viewBox="0 0 32 32">
  <path id="Path_12382" data-name="Path 12382" d="M22,0H10A10,10,0,0,0,0,10V22A10,10,0,0,0,10,32H22A10,10,0,0,0,32,22V10A10,10,0,0,0,22,0Zm7,22a7.008,7.008,0,0,1-7,7H10a7.008,7.008,0,0,1-7-7V10a7.008,7.008,0,0,1,7-7H22a7.008,7.008,0,0,1,7,7Z" fill="#fff"/>
  <path id="Path_12383" data-name="Path 12383" d="M136,128a8,8,0,1,0,8,8A8,8,0,0,0,136,128Zm0,13a5,5,0,1,1,5-5A5.007,5.007,0,0,1,136,141Z" transform="translate(-120 -120)" fill="#fff"/>
  <circle id="Ellipse_570" data-name="Ellipse 570" cx="2.066" cy="2.066" r="2.066" transform="translate(22.534 5.334)" fill="#fff"/>
</svg>
