<svg xmlns="http://www.w3.org/2000/svg" width="40" height="37.191" viewBox="0 0 40 37.191"><defs><style>.a{fill:#fff;}</style></defs><g transform="translate(0 -1.826)"><path d="M39.934,12.916C39.35,6.489,34.8,1.827,29.109,1.827A10.761,10.761,0,0,0,19.89,7.139a10.37,10.37,0,0,0-9-5.313C5.2,1.826.65,6.489.067,12.915a11.435,11.435,0,0,0,.34,4.214,18.075,18.075,0,0,0,5.538,9.241L19.881,39.017,34.055,26.371a18.078,18.078,0,0,0,5.538-9.242A11.46,11.46,0,0,0,39.934,12.916Z"/><path class="a" d="M6.845,7.9a8.471,8.471,0,0,1,8.461,8.461.846.846,0,0,1-1.692,0A6.777,6.777,0,0,0,6.845,9.6a.846.846,0,1,1,0-1.692Z" transform="translate(20.077 -0.935)"/></g></svg>