<svg xmlns="http://www.w3.org/2000/svg" width="24" height="24" viewBox="0 0 24 24">
  <g id="messenger" transform="translate(-0.025 0)">
    <path id="Path_12410" data-name="Path 12410" d="M12.025,0a11.989,11.989,0,0,0-8,20.928,11.222,11.222,0,0,0,3.552,2.215A12,12,0,1,0,12.025,0Z" transform="translate(0 0)" fill="#2196f3"/>
    <path id="Path_12411" data-name="Path 12411" d="M102.181,170.872a.6.6,0,0,0-.677-.124l-5.5,2.511-3.42-2.457a.606.606,0,0,0-.718.023l-6.343,5.314a.394.394,0,0,0,0,.626.607.607,0,0,0,.625.075l5.5-2.511,3.423,2.458a.606.606,0,0,0,.718-.023l6.343-5.314A.391.391,0,0,0,102.181,170.872Z" transform="translate(-81.804 -161.795)" fill="#fafafa"/>
  </g>
</svg>
