<svg xmlns="http://www.w3.org/2000/svg" width="21.333" height="14.667" viewBox="0 0 21.333 14.667"><defs><style>.a{fill:#fff;}</style></defs><g transform="translate(14.141 2.704)"><path class="a" d="M339.392,149.635l7.192,4.547V144.9Z" transform="translate(-339.392 -144.896)"/></g><g transform="translate(0 2.704)"><path class="a" d="M0,144.9v9.285l7.192-4.547Z" transform="translate(0 -144.896)"/></g><g transform="translate(0.04 0)"><path class="a" d="M20.92,80H2.253A1.317,1.317,0,0,0,.96,81.135l10.627,7,10.627-7A1.317,1.317,0,0,0,20.92,80Z" transform="translate(-0.96 -80)"/></g><g transform="translate(0.043 8.247)"><path class="a" d="M13.9,277.921l-1.887,1.243a.669.669,0,0,1-.733,0L9.395,277.92l-8.371,5.295a1.315,1.315,0,0,0,1.291,1.125H20.981a1.315,1.315,0,0,0,1.291-1.125Z" transform="translate(-1.024 -277.92)"/></g></svg>