<svg xmlns="http://www.w3.org/2000/svg" width="48" height="47.998" viewBox="0 0 48 47.998"><defs><style>.a{fill:#fafafa;}</style></defs><path d="M.292,20.3l20-20A1,1,0,0,1,21,.009H47a1,1,0,0,1,.708,1.708l-46,46A1,1,0,0,1,0,47.007v-26A1,1,0,0,1,.292,20.3Z" transform="translate(0 -0.009)"/><g transform="translate(30.989 3.004) rotate(90)"><path class="a" d="M7.015,0a1,1,0,0,1,.98,1.2L6.643,7.962l3.664-3.67a1,1,0,0,1,1.414,1.414l-6,6a1,1,0,0,1-1.688-.9L5.385,4.042,1.719,7.706A1,1,0,0,1,.281,6.316l.025-.025,6-6A1,1,0,0,1,7.015,0Z" transform="translate(15.99 14)"/><path class="a" d="M7.011,0a1,1,0,0,1,.708.292l3,3a1,1,0,0,1,0,1.414l-6,6a1,1,0,0,1-1.414,0l-3-3A1,1,0,1,1,1.695,6.267l.025.025L4.011,8.586,8.6,4,6.305,1.708A1,1,0,0,1,7.011,0Z" transform="translate(9.994 8)"/><path class="a" d="M1,0a1,1,0,0,1,.708.292l2,2A1,1,0,0,1,2.292,3.706l-2-2A1,1,0,0,1,1,0Z" transform="translate(14.007 12)"/><path class="a" d="M9.005,0a1,1,0,0,1,.948,1.316l-1.368,4.1,4.1-1.368a1.012,1.012,0,0,1,1.072.294,1,1,0,0,1,.138,1.1l-4,8a1,1,0,0,1-1.79-.894h0l2.92-5.84L7.317,7.948a1.01,1.01,0,0,1-1.024-.242,1,1,0,0,1-.242-1.024L7.287,2.974l-5.84,2.92A1,1,0,0,1,.554,4.1l8-4A1,1,0,0,1,9.005,0Z" transform="translate(0 0)"/></g></svg>