<svg xmlns="http://www.w3.org/2000/svg" width="14" height="14" viewBox="0 0 14 14"><defs><style>.a{fill:#fff;}</style></defs><g transform="translate(-0.539 0)"><g transform="translate(0.539 0)"><path class="a" d="M14.172,10.275,12.214,8.321a1.3,1.3,0,0,0-2.168.488,1.333,1.333,0,0,1-1.538.837A6.031,6.031,0,0,1,4.872,6.018a1.264,1.264,0,0,1,.839-1.535A1.3,1.3,0,0,0,6.2,2.32L4.243.366a1.4,1.4,0,0,0-1.888,0L1.026,1.692c-1.329,1.4.14,5.094,3.426,8.373s6.992,4.815,8.391,3.419l1.329-1.326A1.391,1.391,0,0,0,14.172,10.275Z" transform="translate(-0.539 0)"/></g></g></svg>