<svg xmlns="http://www.w3.org/2000/svg" width="24" height="24" viewBox="0 0 24 24">
  <path id="pinterest" d="M12.441,0a11.981,11.981,0,0,0-4.8,22.967A10.672,10.672,0,0,1,7.848,20.2c.248-.991,1.531-6.527,1.531-6.527a4.837,4.837,0,0,1-.372-1.9c0-1.776,1.034-3.1,2.317-3.1a1.62,1.62,0,0,1,1.614,1.818,25.55,25.55,0,0,1-1.076,4.255,1.855,1.855,0,0,0,1.9,2.313c2.276,0,3.807-2.933,3.807-6.361,0-2.644-1.779-4.585-5.007-4.585a5.7,5.7,0,0,0-5.917,5.742,3.434,3.434,0,0,0,.786,2.355.586.586,0,0,1,.166.661c-.041.207-.207.744-.248.95a.425.425,0,0,1-.621.289c-1.7-.7-2.441-2.52-2.441-4.585,0-3.387,2.855-7.477,8.566-7.477,4.593,0,7.614,3.3,7.614,6.857,0,4.709-2.607,8.22-6.455,8.22a3.486,3.486,0,0,1-2.938-1.487s-.7,2.768-.828,3.3a9.743,9.743,0,0,1-1.2,2.561,11.627,11.627,0,0,0,3.393.5,12,12,0,1,0,0-24" transform="translate(-0.441)" fill="#cb1f24"/>
</svg>
