<svg xmlns="http://www.w3.org/2000/svg" width="24.365" height="24.384" viewBox="0 0 24.365 24.384"><g transform="translate(29.054 17.74) rotate(135)"><g transform="translate(0 0)"><rect width="1.527" height="1.8" transform="translate(7.232 7.69)"/><path d="M8,0a8,8,0,1,0,8,8A8.009,8.009,0,0,0,8,0ZM8,14.509A6.51,6.51,0,1,1,14.509,8,6.517,6.517,0,0,1,8,14.509Z" transform="translate(0 9.088)"/><path d="M0,6.818V1.382a1.382,1.382,0,1,1,2.764,0V6.818Z" transform="translate(6.632 0)"/><path d="M2.382.891H.4a.4.4,0,0,1-.4-.4V0H2.782V.491a.392.392,0,0,1-.4.4Z" transform="translate(6.632 6.799)"/></g></g></svg>