<svg xmlns="http://www.w3.org/2000/svg" xmlns:xlink="http://www.w3.org/1999/xlink" width="19.228" height="19.228" viewBox="0 0 19.228 19.228"><defs><style>.a{fill:url(#a);}.b{fill:url(#b);}.c{fill:url(#c);}.d{fill:#fff;}</style><linearGradient id="a" x1="0.332" y1="0.141" x2="0.585" y2="0.682" gradientUnits="objectBoundingBox"><stop offset="0" stop-color="#3457a0"/><stop offset="1" stop-color="#3b5998"/></linearGradient><linearGradient id="b" x1="0.714" y1="0.647" x2="-0.271" y2="-0.03" gradientUnits="objectBoundingBox"><stop offset="0" stop-color="#3457a0" stop-opacity="0"/><stop offset="1" stop-color="#1f3f77"/></linearGradient><linearGradient id="c" x1="0.5" y1="0.177" x2="0.5" y2="0.855" xlink:href="#b"/></defs><path class="a" d="M15.789,18.9a58.076,58.076,0,0,1-12.35,0,3.5,3.5,0,0,1-3.11-3.11,58.076,58.076,0,0,1,0-12.349A3.5,3.5,0,0,1,3.439.329a58.076,58.076,0,0,1,12.349,0,3.5,3.5,0,0,1,3.11,3.11,58.075,58.075,0,0,1,0,12.349,3.5,3.5,0,0,1-3.11,3.11Zm0,0" transform="translate(0 0.001)"/><path class="b" d="M45.6,31.886a3.107,3.107,0,0,0-2.76-2.76,51.555,51.555,0,0,0-10.959,0,3.107,3.107,0,0,0-2.76,2.76,51.553,51.553,0,0,0,0,10.959,3.107,3.107,0,0,0,2.76,2.76,51.534,51.534,0,0,0,10.959,0,3.107,3.107,0,0,0,2.76-2.76A51.534,51.534,0,0,0,45.6,31.886Zm0,0" transform="translate(-27.751 -27.751)"/><path class="c" d="M7.672,409.8q.02.2.041.4a3.5,3.5,0,0,0,3.11,3.11,58.074,58.074,0,0,0,12.35,0,3.5,3.5,0,0,0,3.11-3.11q.021-.2.041-.4Zm0,0" transform="translate(-7.384 -394.415)"/><g transform="translate(3.205 6.283)"><g transform="translate(0 0)"><g transform="translate(0 1.148)"><path class="d" d="M141.329,74.085c.149.063.3.129.447.187a.176.176,0,0,1,.114.15,1.136,1.136,0,0,1-.034.5.217.217,0,0,1-.212.19.251.251,0,0,0-.106.052,1.039,1.039,0,0,0-.079.071c.306.13.623.275.939.438a1.521,1.521,0,0,1,.4.291l.1.107v.514h2.48a1.1,1.1,0,0,0-.787-.906c-.281-.1-.557-.224-.831-.348a1.274,1.274,0,0,1-.206-.167.265.265,0,0,0-.105-.052.217.217,0,0,1-.213-.19,1.141,1.141,0,0,1-.034-.5.176.176,0,0,1,.114-.15c.151-.058.3-.124.447-.187.112-.047.118-.086.078-.2a4.379,4.379,0,0,1-.254-1.119,4.711,4.711,0,0,0-.072-.735h-.009c-.005-.022-.008-.045-.014-.067a1.022,1.022,0,0,0-.944-.679h-.009a.662.662,0,0,0-.086,0,3.212,3.212,0,0,0-.446.169.662.662,0,0,0-.4.439,3.139,3.139,0,0,0-.109.869,4.388,4.388,0,0,1-.254,1.118C141.21,74,141.218,74.038,141.329,74.085Z" transform="translate(-132.561 -71.197)"/><path class="d" d="M2.648,74.764l.116-.109a1.807,1.807,0,0,1,.4-.275l.116-.063c.165-.089.33-.178.5-.259.089-.042.182-.08.274-.119-.019-.053-.038-.107-.055-.161s-.035-.138-.125-.157a.1.1,0,0,1-.053-.069q-.027-.2-.041-.4a.128.128,0,0,1,.032-.086.855.855,0,0,0,.208-.456,2.133,2.133,0,0,1,.088-.253c.034-.115.061-.232.088-.349.01-.042,0-.088.011-.131.01-.063.008-.112-.068-.136-.021-.007-.038-.056-.038-.087,0-.187,0-.373,0-.56,0-.114,0-.23-.008-.344a.725.725,0,0,0-.306-.506,1.2,1.2,0,0,0-.807-.353l-.02,0-.02,0a1.193,1.193,0,0,0-.806.353.724.724,0,0,0-.306.506c-.008.114-.008.23-.008.344,0,.187,0,.374,0,.56,0,.031-.018.081-.039.087-.075.024-.077.073-.067.136.007.043,0,.089.011.131.026.117.053.234.087.349a2.2,2.2,0,0,1,.088.253.854.854,0,0,0,.209.456.134.134,0,0,1,.032.086c-.009.134-.023.268-.041.4a.1.1,0,0,1-.053.069c-.089.019-.1.088-.124.157-.028.092-.058.183-.093.272a.144.144,0,0,1-.066.069c-.158.069-.32.132-.479.2s-.341.139-.506.218-.337.174-.5.263A1.24,1.24,0,0,0,0,74.981v.293H2.646v-.51h0Z" transform="translate(0.001 -69.886)"/></g><path class="d" d="M55.848,57.136a18.321,18.321,0,0,0-1.794-.78.224.224,0,0,1-.119-.092,2.9,2.9,0,0,1-.119-.342c-.022-.074-.041-.144-.123-.178a.1.1,0,0,1-.041-.079c0-.267-.057-.548.141-.782a.193.193,0,0,0,.013-.026,4.335,4.335,0,0,1,.275-.72.039.039,0,0,0,.005-.019c.017-.166.036-.332.049-.5a.078.078,0,0,0-.034-.064c-.082-.029-.078-.1-.077-.161q0-.487,0-.974a.62.62,0,0,0-.2-.485c-.162-.146-.33-.287-.5-.428-.081-.068-.087-.12-.012-.2a1.025,1.025,0,0,1,.114-.084l-.024-.038a.942.942,0,0,0-.151,0c-.185.03-.371.056-.551.1a2.3,2.3,0,0,0-.964.421.869.869,0,0,0-.365.6c-.009.137-.008.274-.009.411,0,.223,0,.447,0,.669,0,.037-.022.1-.047.1-.09.029-.093.087-.081.162.008.052,0,.106.013.156.031.139.064.279.1.416a2.5,2.5,0,0,1,.1.3,1.023,1.023,0,0,0,.25.545.157.157,0,0,1,.038.1q-.016.24-.049.479a.118.118,0,0,1-.064.083c-.106.023-.123.1-.148.187-.034.109-.069.219-.112.324a.162.162,0,0,1-.078.082c-.189.083-.382.159-.572.238s-.407.167-.6.261-.4.207-.6.314a1.442,1.442,0,0,0-.319.219v.35h6.951v-.364A1.128,1.128,0,0,0,55.848,57.136Z" transform="translate(-46.179 -51.186)"/></g></g></svg>