<svg id="Group_5165" data-name="Group 5165" xmlns="http://www.w3.org/2000/svg" width="48" height="26.688" viewBox="0 0 48 26.688">
  <g id="Group_5063" data-name="Group 5063">
    <path id="Path_4882" data-name="Path 4882" d="M586.549,1181.87a3.976,3.976,0,1,1-4.006,3.978A3.992,3.992,0,0,1,586.549,1181.87Zm0,5.965a1.986,1.986,0,1,0-2-1.987A2,2,0,0,0,586.549,1187.835Zm-30.214-8.9v4.242a1.924,1.924,0,0,0,1.932,1.917h2.068a5.309,5.309,0,0,1,10.493,0h10.478a5.3,5.3,0,0,1,10.486,0h2.589a1.924,1.924,0,0,0,1.932-1.917v-4.242Zm9.243,2.939a3.976,3.976,0,1,1-4.006,3.978A4,4,0,0,1,565.578,1181.87Zm0,5.965a1.986,1.986,0,1,0-2-1.987A2,2,0,0,0,565.578,1187.835ZM557.1,1174.66l7.593-7.446a2.593,2.593,0,0,1,1.81-.741h3.832v-1.424a1.922,1.922,0,0,1,1.933-1.916h22.117a1.926,1.926,0,0,1,1.933,1.916v.3l7.841.9-13.894,1.794,14.074,1.385L590.31,1171.4l14.025,1.206-8.022,1.5v3.765H556.336v-1.4A2.554,2.554,0,0,1,557.1,1174.66Zm3.31.249h7.349a.3.3,0,0,0,.3-.3v-5.626a.3.3,0,0,0-.3-.3h-1.4a.334.334,0,0,0-.213.082l-5.945,5.627A.3.3,0,0,0,560.407,1174.909Z" transform="translate(-556.335 -1163.133)"/>
  </g>
</svg>
