<svg id="shopping-cart" xmlns="http://www.w3.org/2000/svg" width="19.222" height="19.222" viewBox="0 0 19.222 19.222">
  <g id="Group_5167" data-name="Group 5167">
    <g id="Group_5166" data-name="Group 5166">
      <path id="Path_5842" data-name="Path 5842" d="M17.815,1.747H3.495v.125l-.179-.614A1.756,1.756,0,0,0,1.638,0H.437a.437.437,0,0,0,0,.874h1.2a.878.878,0,0,1,.839.629L5.2,10.826,3.8,12.568a1.407,1.407,0,0,0,1.1,2.286H17.038a.437.437,0,0,0,0-.874H4.9a.533.533,0,0,1-.416-.866l1.4-1.755h8.569a1.755,1.755,0,0,0,1.582-1l3.049-6.478a1.419,1.419,0,0,0,.134-.6V3.154A1.408,1.408,0,0,0,17.815,1.747Zm.533,1.531a.534.534,0,0,1-.051.227L15.249,9.983a.878.878,0,0,1-.791.5H6.007L3.713,2.621h14.1a.534.534,0,0,1,.533.533Z" fill="#fff"/>
      <path id="Path_5843" data-name="Path 5843" d="M87.08,384a1.747,1.747,0,1,0,1.747,1.747A1.749,1.749,0,0,0,87.08,384Zm0,2.621a.874.874,0,1,1,.874-.874A.875.875,0,0,1,87.08,386.621Z" transform="translate(-81.838 -368.273)" fill="#fff"/>
      <path id="Path_5844" data-name="Path 5844" d="M343.08,384a1.747,1.747,0,1,0,1.747,1.747A1.749,1.749,0,0,0,343.08,384Zm0,2.621a.874.874,0,1,1,.874-.874A.875.875,0,0,1,343.08,386.621Z" transform="translate(-327.353 -368.273)" fill="#fff"/>
    </g>
  </g>
</svg>
