<svg xmlns="http://www.w3.org/2000/svg" width="32" height="38.692" viewBox="0 0 32 38.692">
  <g id="videos" transform="translate(-44.245)">
    <g id="Group_5795" data-name="Group 5795" transform="translate(44.245)">
      <path id="Path_12384" data-name="Path 12384" d="M75.684,220.532a3.894,3.894,0,0,0-1.241-2.115,3.971,3.971,0,0,0-2.214-1q-3.973-.427-11.984-.427t-11.962.427a3.937,3.937,0,0,0-2.224,1,4.049,4.049,0,0,0-1.253,2.115,36.645,36.645,0,0,0-.561,7.478,35.89,35.89,0,0,0,.561,7.478,3.9,3.9,0,0,0,1.242,2.115,3.847,3.847,0,0,0,2.213.983,116.693,116.693,0,0,0,11.984.449,116.67,116.67,0,0,0,11.983-.449,3.8,3.8,0,0,0,2.2-.983,4.046,4.046,0,0,0,1.252-2.115,36.641,36.641,0,0,0,.562-7.478A35.908,35.908,0,0,0,75.684,220.532Zm-22.3,2.158h-2.31v12.156H48.91V222.69H46.643v-2.008h6.737v2.008Zm5.83,12.156H57.287v-1.154a3.168,3.168,0,0,1-2.2,1.3,1.163,1.163,0,0,1-1.252-.79,5.235,5.235,0,0,1-.173-1.56v-8.353h1.922v7.776a5.839,5.839,0,0,0,.022.748q.065.449.453.449.583,0,1.231-.9v-8.076h1.922v10.554Zm7.341-3.162a7.813,7.813,0,0,1-.194,2.137A1.493,1.493,0,0,1,64.823,235a2.687,2.687,0,0,1-2.008-1.175v1.025H60.894V220.682h1.921v4.636a2.608,2.608,0,0,1,2.008-1.153,1.5,1.5,0,0,1,1.533,1.2,7.555,7.555,0,0,1,.194,2.115Zm7.3-1.752H69.983v1.859q0,1.474.993,1.474a.823.823,0,0,0,.864-.769,10.538,10.538,0,0,0,.043-1.3h1.965v.278a9.358,9.358,0,0,1-.043,1.239,2.57,2.57,0,0,1-.453,1.153A2.641,2.641,0,0,1,71.019,235a2.784,2.784,0,0,1-2.332-1.089,3.982,3.982,0,0,1-.626-2.478v-3.7a4.091,4.091,0,0,1,.6-2.478,2.972,2.972,0,0,1,4.6,0,4.2,4.2,0,0,1,.583,2.478v2.2Z" transform="translate(-44.245 -200.341)" fill="#fff"/>
      <path id="Path_12385" data-name="Path 12385" d="M290.748,336.043a1.373,1.373,0,0,0-.961.47v6.43a1.371,1.371,0,0,0,.961.47q.833,0,.834-1.431v-4.507Q291.582,336.043,290.748,336.043Z" transform="translate(-271.206 -310.565)" fill="#fff"/>
      <path id="Path_12386" data-name="Path 12386" d="M385.542,336.043q-.961,0-.961,1.452v.983H386.5V337.5Q386.5,336.043,385.542,336.043Z" transform="translate(-358.777 -310.611)" fill="#fff"/>
      <path id="Path_12387" data-name="Path 12387" d="M115.189,8.524v5.79h2.136V8.524L119.91,0h-2.179l-1.452,5.619L114.761,0H112.5q.6,1.795,1.389,4A36.211,36.211,0,0,1,115.189,8.524Z" transform="translate(-107.319)" fill="#fff"/>
      <path id="Path_12388" data-name="Path 12388" d="M214.689,58.047a2.628,2.628,0,0,0,2.264-1.09,4.209,4.209,0,0,0,.6-2.521V50.7a4.169,4.169,0,0,0-.6-2.5,2.876,2.876,0,0,0-4.508,0,4.168,4.168,0,0,0-.6,2.5v3.739a4.27,4.27,0,0,0,.6,2.521A2.642,2.642,0,0,0,214.689,58.047Zm-.919-7.734q0-1.474.919-1.474t.919,1.474V54.8q0,1.5-.919,1.5t-.919-1.5Z" transform="translate(-199.143 -43.583)" fill="#fff"/>
      <path id="Path_12389" data-name="Path 12389" d="M310.629,59.632a3.074,3.074,0,0,0,2.2-1.325v1.175h1.944V48.822H312.83v8.14q-.641.919-1.218.919-.385,0-.449-.47a5.586,5.586,0,0,1-.021-.748v-7.84H309.2V57.24a5.491,5.491,0,0,0,.171,1.6A1.188,1.188,0,0,0,310.629,59.632Z" transform="translate(-289.115 -45.169)" fill="#fff"/>
    </g>
  </g>
</svg>
