<svg xmlns="http://www.w3.org/2000/svg" xmlns:xlink="http://www.w3.org/1999/xlink" width="19.228" height="19.228" viewBox="0 0 19.228 19.228"><defs><style>.a{fill:#ef0000;}.b{fill:url(#a);}.c{fill:url(#b);}.d{fill:#fff;}</style><linearGradient id="a" x1="0.369" y1="0.426" x2="-1.54" y2="-0.648" gradientUnits="objectBoundingBox"><stop offset="0" stop-color="#a1b5d8" stop-opacity="0"/><stop offset="0.309" stop-color="#90a2bd" stop-opacity="0.31"/><stop offset="0.755" stop-color="#7c8b9c" stop-opacity="0.757"/><stop offset="1" stop-color="#748290"/></linearGradient><linearGradient id="b" x1="0.5" y1="0.413" x2="0.5" y2="1.193" xlink:href="#a"/></defs><path class="a" d="M15.789,18.9a58.077,58.077,0,0,1-12.35,0,3.5,3.5,0,0,1-3.11-3.11,58.075,58.075,0,0,1,0-12.349A3.5,3.5,0,0,1,3.439.329a58.075,58.075,0,0,1,12.349,0,3.5,3.5,0,0,1,3.11,3.11,58.075,58.075,0,0,1,0,12.349,3.5,3.5,0,0,1-3.11,3.11Zm0,0" transform="translate(0 0.001)"/><path class="b" d="M45.6,31.886a3.107,3.107,0,0,0-2.76-2.76,51.555,51.555,0,0,0-10.959,0,3.107,3.107,0,0,0-2.76,2.76,51.553,51.553,0,0,0,0,10.958,3.107,3.107,0,0,0,2.76,2.76,51.534,51.534,0,0,0,10.958,0,3.107,3.107,0,0,0,2.76-2.76,51.535,51.535,0,0,0,0-10.958Zm0,0" transform="translate(-27.751 -27.751)"/><path class="c" d="M7.672,409.8q.02.2.041.4a3.5,3.5,0,0,0,3.11,3.11,58.073,58.073,0,0,0,12.349,0,3.5,3.5,0,0,0,3.11-3.11q.021-.2.041-.4Zm0,0" transform="translate(-7.384 -394.415)"/><path class="d" d="M225.8,216.224l8.012-4.805L225.8,206.61Zm0,0" transform="translate(-219.392 -201.803)"/></svg>