<svg xmlns="http://www.w3.org/2000/svg" width="273.683" height="41.102" viewBox="0 0 273.683 41.102">
  <g id="Group_5083" data-name="Group 5083" transform="translate(-110.686 -1918)">
    <path id="Path_4908" data-name="Path 4908" d="M395.774,1918h12.247l-10.082,15.649H410.8L387.629,1959.1l7.954-20.908H382.826Z" transform="translate(-187.192 0)" fill="#c73030"/>
    <path id="Path_4909" data-name="Path 4909" d="M135.427,1941.318h-10.4l-.678,3.709h9.86l-1.493,8.5H122.9l-1.945,11.036H110.686l5.654-32.023h20.625Z" transform="translate(0 -10.004)" fill="#c73030"/>
    <path id="Path_4910" data-name="Path 4910" d="M214.478,1964.566H193.13l5.654-32.023h10.538l-4.071,23.067h10.81Z" transform="translate(-56.709 -10.004)" fill="#c73030"/>
    <path id="Path_4911" data-name="Path 4911" d="M259.349,1964.566l19.675-32.023H290.06l5.609,32.023H284.813l-.724-4.885h-10.4l-2.669,4.885Zm18.363-12.891h5.518l-.95-8.231Z" transform="translate(-102.258 -10.004)" fill="#c73030"/>
    <path id="Path_4912" data-name="Path 4912" d="M477.423,1932.543h10.4l-1.945,10.991h9.136l1.945-10.991h10.493l-5.654,32.023H491.353l2.171-12.3h-9.136l-2.171,12.3H471.769Z" transform="translate(-248.372 -10.004)" fill="#c73030"/>
    <path id="Path_4913" data-name="Path 4913" d="M615.218,1958.864l7.146-6.6a9.18,9.18,0,0,0,6.2,2.714c2.125,0,3.482-.769,3.482-2.035,0-1.086-.995-1.854-3.754-2.759-5.382-1.764-8.232-3.98-8.232-8.91a10.429,10.429,0,0,1,3.935-8.322,15.216,15.216,0,0,1,10.177-3.3c4.568,0,9.136,1.583,11.443,3.98l-6.694,6.468a6.153,6.153,0,0,0-4.839-2.035c-1.809,0-3.3.814-3.3,2.216,0,1.086.9,1.674,3.392,2.443,5.789,1.945,8.82,4.7,8.82,9.363,0,8.186-7.96,11.4-14.383,11.4C623.5,1963.478,618.158,1961.759,615.218,1958.864Z" transform="translate(-347.044 -8.011)" fill="#c73030"/>
    <path id="Path_4914" data-name="Path 4914" d="M697.664,1964.566l19.675-32.023h11.036l5.609,32.023H723.128l-.724-4.885H712l-2.669,4.885Zm18.363-12.891h5.518l-.95-8.231Z" transform="translate(-403.754 -10.004)" fill="#c73030"/>
    <path id="Path_4915" data-name="Path 4915" d="M844.349,1964.566H823l5.654-32.023h10.538l-4.071,23.067h10.81Z" transform="translate(-489.968 -10.004)" fill="#c73030"/>
    <path id="Path_4916" data-name="Path 4916" d="M924.513,1964.566H902.26l5.653-32.023h20.941l-1.538,8.73H916.236l-.543,3.075h10.583l-1.447,8.141H914.246l-.588,3.347h12.393Z" transform="translate(-544.486 -10.004)" fill="#c73030"/>
  </g>
</svg>
