<svg xmlns="http://www.w3.org/2000/svg" width="64" height="40.001" viewBox="0 0 64 40.001">
  <g id="Group_5983" data-name="Group 5983" transform="translate(427.796 -398.64)">
    <path id="Path_12397" data-name="Path 12397" d="M-314.16,398.64c.479.1.962.176,1.435.3a11.394,11.394,0,0,1,8.459,7.955c.173.528.033.753-.507.905a2.221,2.221,0,0,1-2.806-1.332,8.964,8.964,0,0,0-2.708-3.234,8.638,8.638,0,0,0-12.679,2.931,6.782,6.782,0,0,1-.559.932,2.26,2.26,0,0,1-2.6.648c-.405-.178-.438-.47-.317-.855a11.473,11.473,0,0,1,6.183-7.167,10.672,10.672,0,0,1,3.453-.989,1.307,1.307,0,0,0,.267-.09Z" transform="translate(-80.356)"/>
    <path id="Path_12398" data-name="Path 12398" d="M-424.315,553.711a11.178,11.178,0,0,1-1.963-1.07,4.444,4.444,0,0,1-.586-6.073,4.426,4.426,0,0,1,6.062-.918c.308.212.584.471.869.7-.579.877-1.124,1.032-1.984.6a2.812,2.812,0,0,0-1.983-.4,2.566,2.566,0,0,0-2.04,2.054,2.675,2.675,0,0,0,.869,2.872,2.641,2.641,0,0,0,2.885.311c.09-.04.176-.089.264-.134.872-.445,1.325-.325,1.919.535a4.21,4.21,0,0,1-2.13,1.331c-.2.056-.4.127-.6.191Z" transform="translate(0 -115.071)"/>
    <path id="Path_12399" data-name="Path 12399" d="M-331.209,553.683a4.915,4.915,0,0,1-2.5-1.5,4.507,4.507,0,0,1,.094-5.9,4.407,4.407,0,0,1,5.958-.587c.263.192.5.418.745.622a1.307,1.307,0,0,1-2.059.555,2.6,2.6,0,0,0-3.738,1.092,2.982,2.982,0,0,0,.512,3.356,2.8,2.8,0,0,0,3.264.325c.92-.47,1.332-.367,1.949.5a4.3,4.3,0,0,1-2.419,1.424c-.108.027-.212.071-.317.107Z" transform="translate(-73.801 -115.043)"/>
    <path id="Path_12400" data-name="Path 12400" d="M-156.837,553.682a7.825,7.825,0,0,1-.98-.795c-.583-.646-1.117-1.336-1.685-2.025-1.372,1.363-2.634,2.869-4.875,2.475.244-.144.495-.276.73-.433a14.576,14.576,0,0,0,3.474-3.424c.719-.947,1.4-1.922,2.164-2.833a9.939,9.939,0,0,1,1.51-1.411,2.2,2.2,0,0,1,1.672-.408c-.636.723-1.276,1.418-1.877,2.145-.5.609-.952,1.267-1.452,1.88-.214.262-.173.432.024.674,1,1.227,1.99,2.467,2.979,3.706.112.14.2.3.3.449Z" transform="translate(-208.969 -115.041)"/>
    <path id="Path_12401" data-name="Path 12401" d="M-315.3,474.55a11.369,11.369,0,0,1-11.031-8.015c-.247-.772-.1-1,.7-1.134a2.186,2.186,0,0,1,2.581,1.428,8.783,8.783,0,0,0,3.259,3.57,8.642,8.642,0,0,0,12.1-3.309c.131-.248.259-.5.411-.733a2.258,2.258,0,0,1,2.694-.874.591.591,0,0,1,.381.861,11.433,11.433,0,0,1-8.689,8.014,7.508,7.508,0,0,1-1.17.184C-314.479,474.574-314.893,474.55-315.3,474.55Z" transform="translate(-80.401 -52.489)"/>
    <path id="Path_12402" data-name="Path 12402" d="M-289.751,434.962a6.157,6.157,0,0,1-8.729.786,6.16,6.16,0,0,1-.254-8.856,6.11,6.11,0,0,1,9.01.387,1.881,1.881,0,0,1-2.819.9,3.485,3.485,0,0,0-3.614-.149,3.87,3.87,0,0,0-1.409,4.8,3.417,3.417,0,0,0,4.31,1.7,4.79,4.79,0,0,0,.932-.452,1.352,1.352,0,0,1,1.732.108C-290.3,434.411-290.042,434.688-289.751,434.962Z" transform="translate(-100.991 -20.987)"/>
    <path id="Path_12403" data-name="Path 12403" d="M-380.627,553.679a4.361,4.361,0,0,1-4.365-4.337,4.382,4.382,0,0,1,4.451-4.311,4.347,4.347,0,0,1,4.323,4.371A4.333,4.333,0,0,1-380.627,553.679Zm-2.62-4.3a2.68,2.68,0,0,0,2.645,2.707,2.7,2.7,0,0,0,2.666-2.748,2.724,2.724,0,0,0-2.658-2.715A2.7,2.7,0,0,0-383.247,549.38Z" transform="translate(-33.956 -115.221)"/>
    <path id="Path_12404" data-name="Path 12404" d="M-287.587,553.679a4.341,4.341,0,0,1-4.352-4.339,4.358,4.358,0,0,1,4.439-4.309,4.346,4.346,0,0,1,4.322,4.372A4.331,4.331,0,0,1-287.587,553.679Zm.051-1.594a2.736,2.736,0,0,0,2.658-2.722,2.754,2.754,0,0,0-2.7-2.738,2.727,2.727,0,0,0-2.643,2.73A2.7,2.7,0,0,0-287.535,552.085Z" transform="translate(-107.775 -115.221)"/>
    <path id="Path_12405" data-name="Path 12405" d="M-198.578,546.465c0,1.456,0,2.873,0,4.289a7.752,7.752,0,0,1-.033,1.088,3.235,3.235,0,0,1-2.67,2.872,5.932,5.932,0,0,1-2.837-.036,3.112,3.112,0,0,1-2.476-2.918c-.08-1.744-.019-3.494-.019-5.294.267,0,.526-.019.78,0,.647.058.9.335.9,1,.01,1.173-.013,2.346.021,3.517a2.276,2.276,0,0,0,1.279,2.028,2.287,2.287,0,0,0,3.271-1.629,6.439,6.439,0,0,0,.081-.886c.01-1.024,0-2.048.006-3.072,0-.64.239-.9.877-.956C-199.143,546.445-198.883,546.465-198.578,546.465Z" transform="translate(-175.445 -116.351)"/>
    <path id="Path_12406" data-name="Path 12406" d="M-234.07,554.778h-6.291V546.36a8.924,8.924,0,0,1,1.091.074c.531.1.622.526.622.985q0,1.711,0,3.421v2.338h2.362C-234.783,553.179-234.654,553.269-234.07,554.778Z" transform="translate(-148.691 -116.275)"/>
    <path id="Path_12407" data-name="Path 12407" d="M-158.978,550.5l-3.3-4.123c1.214-.167,2.252-.112,2.965,1.017a21.614,21.614,0,0,0,1.355,1.742Z" transform="translate(-210.637 -116.235)"/>
  </g>
</svg>
