<svg id="Group_5065" data-name="Group 5065" xmlns="http://www.w3.org/2000/svg" width="71.283" height="51.255" viewBox="0 0 71.283 51.255">
  <path id="Path_4868" data-name="Path 4868" d="M537.447,1148.347a23.569,23.569,0,0,1,21.11,13.081h2.27a25.625,25.625,0,0,0-46.759,0h2.271A23.568,23.568,0,0,1,537.447,1148.347Z" transform="translate(-496.85 -1146.293)"/>
  <path id="Path_4869" data-name="Path 4869" d="M557.582,1234.2H510a25.631,25.631,0,0,0,49.711,0Z" transform="translate(-494.257 -1202.314)"/>
  <g id="Group_5058" data-name="Group 5058" transform="translate(28.435 35.172)">
    <path id="Path_4870" data-name="Path 4870" d="M556.2,1246.962q-.471,2.234-3.507,3.626h2.734l-1.427,2.9h-9.008q4.062-2.951,4.891-3.612,2.55-2,2.706-2.734a1.493,1.493,0,0,0,.013-.189.552.552,0,0,0-.632-.619,1,1,0,0,0-.717.33,1.608,1.608,0,0,0-.436.822h-3.535a5.111,5.111,0,0,1,1.876-2.979,5.248,5.248,0,0,1,3.4-1.237,4.107,4.107,0,0,1,2.811.893,2.667,2.667,0,0,1,.906,2.087A3.391,3.391,0,0,1,556.2,1246.962Z" transform="translate(-544.995 -1243.266)" fill="#fff"/>
    <path id="Path_4871" data-name="Path 4871" d="M587.193,1243.731l-2.136,10.049h-3.738l.73-3.471h-2.284l-.738,3.471h-3.71l2.129-10.049h3.71l-.688,3.268h2.291l.689-3.268Z" transform="translate(-564.319 -1243.562)" fill="#fff"/>
  </g>
  <g id="Group_5059" data-name="Group 5059" transform="translate(24.003 37.252)">
    <path id="Path_4872" data-name="Path 4872" d="M534.892,1249l.654,1.324,1.461.212-1.057,1.031.25,1.455-1.307-.687-1.307.687.25-1.455-1.057-1.031,1.461-.212Z" transform="translate(-532.777 -1249)" fill="#fff"/>
    <path id="Path_4873" data-name="Path 4873" d="M614.73,1249l.654,1.324,1.461.212-1.057,1.031.25,1.455-1.307-.687-1.307.687.25-1.455-1.057-1.031,1.461-.212Z" transform="translate(-583.658 -1249)" fill="#fff"/>
  </g>
  <g id="Group_5062" data-name="Group 5062" transform="translate(0 18.241)">
    <g id="Group_5060" data-name="Group 5060" transform="translate(21.591 5.061)">
      <path id="Path_4874" data-name="Path 4874" d="M528.177,1213.865l-1.915-1.525a.363.363,0,0,1,.452-.568l1.389,1.106,2.065-2.224a.363.363,0,1,1,.532.494Z" transform="translate(-526.125 -1210.539)"/>
    </g>
    <g id="Group_5061" data-name="Group 5061" transform="translate(0 0)">
      <path id="Path_4875" data-name="Path 4875" d="M528.876,1205.288a3.234,3.234,0,0,0-2.413-.933,4.829,4.829,0,0,0-3.086,1.152,4.767,4.767,0,0,0-1.77,2.779,3.772,3.772,0,0,0-.087.787,3,3,0,0,0,.918,2.24,3.231,3.231,0,0,0,2.356.9,4.791,4.791,0,0,0,3.082-1.145,4.857,4.857,0,0,0,1.767-2.851,3.487,3.487,0,0,0,.079-.737A3.053,3.053,0,0,0,528.876,1205.288Zm-.213,2.943a3.674,3.674,0,0,1-1.337,2.157,3.623,3.623,0,0,1-2.331.866,2.444,2.444,0,0,1-1.782-.678,2.272,2.272,0,0,1-.694-1.7,2.857,2.857,0,0,1,.065-.6,3.609,3.609,0,0,1,1.339-2.1,3.653,3.653,0,0,1,2.335-.872,2.448,2.448,0,0,1,1.826.705,2.311,2.311,0,0,1,.639,1.657A2.65,2.65,0,0,1,528.663,1208.23Z" transform="translate(-501.6 -1201.537)" fill="#c73030"/>
      <path id="Path_4876" data-name="Path 4876" d="M559.214,1205.172l-4.191,7.219h-3.165l-.014-3.02-1.373,3.02h-3.107l-1.1-7.219h3.519l.137,3.519,1.612-3.519h2.529l-.072,3.519,1.7-3.519Z" transform="translate(-517.37 -1202.057)" fill="#c73030"/>
      <path id="Path_4877" data-name="Path 4877" d="M588.2,1196.585l-1.373,2.9h-3.179l-.2.86h3.3l-1.351,2.811h-2.544l-.8,3.758h-3.816l2.19-10.333Z" transform="translate(-537.748 -1196.585)" fill="#c73030"/>
      <path id="Path_4878" data-name="Path 4878" d="M607.025,1204.544l-1.821,3.331a1.075,1.075,0,0,0-.875-.419q-1.17,0-1.5,1.5l-.593,2.753h-3.519l1.2-5.622,3.714-1.987-.238,1.142a3.734,3.734,0,0,1,2.385-.947A3.427,3.427,0,0,1,607.025,1204.544Z" transform="translate(-550.801 -1201.372)" fill="#c73030"/>
      <path id="Path_4879" data-name="Path 4879" d="M626.885,1207.358l-4.451,2.045a.524.524,0,0,0,.47.325.812.812,0,0,0,.65-.369l1.973,1.344a4.773,4.773,0,0,1-3.512,1.539,3.185,3.185,0,0,1-2.269-.827,2.815,2.815,0,0,1-.882-2.15,3.864,3.864,0,0,1,.087-.8,4.962,4.962,0,0,1,1.723-2.844,4.582,4.582,0,0,1,3.017-1.152,2.931,2.931,0,0,1,2.753,1.431A3.893,3.893,0,0,1,626.885,1207.358Zm-2.652-.086a.911.911,0,0,0-.8-.448,1.364,1.364,0,0,0-.889.343,1.4,1.4,0,0,0-.506.8,1.621,1.621,0,0,0,0,.311Z" transform="translate(-563.637 -1201.613)" fill="#c73030"/>
      <path id="Path_4880" data-name="Path 4880" d="M649.04,1207.358l-4.451,2.045a.524.524,0,0,0,.47.325.812.812,0,0,0,.65-.369l1.973,1.344a4.774,4.774,0,0,1-3.512,1.539,3.186,3.186,0,0,1-2.269-.827,2.815,2.815,0,0,1-.882-2.15,3.856,3.856,0,0,1,.087-.8,4.961,4.961,0,0,1,1.723-2.844,4.582,4.582,0,0,1,3.017-1.152,2.932,2.932,0,0,1,2.753,1.431A3.9,3.9,0,0,1,649.04,1207.358Zm-2.652-.086a.911.911,0,0,0-.795-.448,1.364,1.364,0,0,0-.889.343,1.4,1.4,0,0,0-.506.8,1.56,1.56,0,0,0,0,.311Z" transform="translate(-577.756 -1201.613)" fill="#c73030"/>
      <path id="Path_4881" data-name="Path 4881" d="M483.382,1196.585l-1.041,4.928-1.908-4.928h-3.743l-.072.338-4.743.779h4.578l-.26,1.229-7.334.835h7.157l-.233,1.1-9.186,1.046h8.964l-1.061,5.007h3.671l1-4.719,1.937,4.719h3.808l2.19-10.333Z" transform="translate(-466.598 -1196.585)" fill="#c73030"/>
    </g>
  </g>
  <g id="Group_5064" data-name="Group 5064" transform="translate(32.548 6.108)">
    <g id="Group_5063" data-name="Group 5063" transform="translate(0 0)">
      <path id="Path_4882" data-name="Path 4882" d="M562.3,1169.471a1.345,1.345,0,1,0,1.343,1.346A1.345,1.345,0,0,0,562.3,1169.471Zm0,2.018a.672.672,0,1,1,.672-.672A.673.673,0,0,1,562.3,1171.489Zm10.133-3.012v1.435a.648.648,0,0,1-.648.649h-.694a1.778,1.778,0,0,0-3.519,0h-3.514a1.777,1.777,0,0,0-3.517,0h-.868a.648.648,0,0,1-.648-.649v-1.435Zm-3.1.994a1.345,1.345,0,1,0,1.343,1.346A1.346,1.346,0,0,0,569.333,1169.471Zm0,2.018a.672.672,0,1,1,.672-.672A.672.672,0,0,1,569.333,1171.489Zm2.845-4.456-2.547-2.519a.866.866,0,0,0-.607-.251h-1.285v-.482a.647.647,0,0,0-.648-.648h-7.417a.649.649,0,0,0-.648.648v.1l-2.63.3,4.66.607-4.72.469,4.7.669-4.7.408,2.69.507v1.274h13.407v-.473A.868.868,0,0,0,572.178,1167.032Zm-1.11.084H568.6a.1.1,0,0,1-.1-.1v-1.9a.1.1,0,0,1,.1-.1h.469a.11.11,0,0,1,.072.028l1.994,1.9A.1.1,0,0,1,571.068,1167.116Z" transform="translate(-556.335 -1163.133)"/>
    </g>
  </g>
  <rect id="Rectangle_14" data-name="Rectangle 14" width="17.114" height="0.364" transform="translate(32.402 14.771)"/>
</svg>
