<svg xmlns="http://www.w3.org/2000/svg" width="51.259" height="51.259" viewBox="0 0 51.259 51.259">
  <path id="img_quality_3" d="M25.63,51.259a25.63,25.63,0,1,1,25.63-25.63A25.679,25.679,0,0,1,25.63,51.259Zm0-48.411A22.782,22.782,0,1,0,48.412,25.63,22.826,22.826,0,0,0,25.63,2.849Zm0,44.614A21.833,21.833,0,1,1,47.462,25.63,21.857,21.857,0,0,1,25.63,47.462Zm0-43.3A21.462,21.462,0,1,0,47.093,25.63,21.486,21.486,0,0,0,25.63,4.167ZM44.442,19.985a.643.643,0,0,1-.378-.4,1.251,1.251,0,0,1-.042-.549A1.16,1.16,0,0,0,44,18.547a.24.24,0,0,0-.167-.154.42.42,0,0,0-.268.01l-.044-.538a.794.794,0,0,1,.574.007.628.628,0,0,1,.383.394,1.362,1.362,0,0,1,.034.527,1.353,1.353,0,0,0,.03.515.257.257,0,0,0,.166.154.391.391,0,0,0,.274-.006l.031.535a.78.78,0,0,1-.573-.007ZM39.553,22.9l-.339-.962.863-.66-.526-1.488-1.083.039-.342-.962L43.2,18.8l.333.943L39.553,22.9Zm2.564-3.194-1.774.058L40.71,20.8l1.412-1.076-.006-.018Zm-4.679-1.78,1.594-1.2-1.179-1.589-1.594,1.2-.583-.782,3.839-2.9.581.783-1.651,1.244,1.18,1.59,1.651-1.246.581.783-3.838,2.9-.581-.782ZM33.2,13.669l.949-1.767-1.727-.949-.951,1.766-.851-.468L32.9,8l.851.468-.983,1.827,1.728.95.982-1.827.851.468-2.287,4.251-.85-.467Zm-4.052-1.781L27.8,8.32h-.021l-.572,3.21-.95-.176.849-4.765.952.177L29.4,10.33h.022l.571-3.207.952.176-.851,4.764Zm-4.8-5.7.618-.912,1.076-.046.009.02-.879.9-.824.034ZM22.4,9.767l-1.9.514.526,1.944-.935.253L18.833,7.8l.935-.253.542,2.011,1.9-.514-.542-2.011L22.6,6.78l1.262,4.677-.932.253L22.4,9.767Zm-3.513,1.52.016.013a1.529,1.529,0,0,1,.247,1.281,1.921,1.921,0,0,1-.894,1.09,1.835,1.835,0,0,1-1.481.279,2,2,0,0,1-1.22-.939l-.51-.814a2.058,2.058,0,0,1-.331-1.506,1.786,1.786,0,0,1,.853-1.212A2.029,2.029,0,0,1,16.961,9.1a1.478,1.478,0,0,1,1.056.771l.006.02-.795.506a.95.95,0,0,0-.558-.466.927.927,0,0,0-.7.178.785.785,0,0,0-.385.662,1.549,1.549,0,0,0,.275.9l.514.819a1.5,1.5,0,0,0,.7.634.83.83,0,0,0,.79-.086.854.854,0,0,0,.425-.54,1,1,0,0,0-.191-.708l.792-.5Zm-4.222,5.225a2.66,2.66,0,0,1-.493,1.073,1.937,1.937,0,0,1-1.275.853,1.891,1.891,0,0,1-1.48-.377l-.818-.589A1.972,1.972,0,0,1,9.754,16.2a1.894,1.894,0,0,1,.357-1.462,1.976,1.976,0,0,1,1.124-.867,1.361,1.361,0,0,1,1.171.281l.011.017-.526.748a.782.782,0,0,0-.615-.167.9.9,0,0,0-.548.4.885.885,0,0,0-.136.788,1.385,1.385,0,0,0,.558.739l.824.592a1.36,1.36,0,0,0,.884.293.908.908,0,0,0,.711-.411,1.718,1.718,0,0,0,.26-.488.858.858,0,0,0,.037-.357l-.758-.547-.537.762-.543-.391,1.1-1.558,1.51,1.088A1.857,1.857,0,0,1,14.665,16.511ZM12.5,20.535l-3.665.907,0,.02,3.092.966-.283.933L7.053,21.926l.284-.931L11,20.086l0-.02L7.912,19.1l.283-.933L12.785,19.6l-.284.933Zm-.907,4.006-1.034.33.006,1.579,1.037.328,0,1.019L6.8,26.155l0-1,4.795-1.635,0,1.02Zm-1.788.568-1.69.538v.02l1.693.542,0-1.1ZM5.451,26.947l0-1.086.874-.656,0,.839-.854.909-.019-.007ZM11.94,28.9l-1.905.589.579,1.9,1.907-.588.286.934L8.219,33.149l-.285-.934,1.972-.608-.58-1.9-1.973.608-.286-.933,4.587-1.414.286.933Zm1.038,8.145.539-.951.539.951,1.061.224-.73.812.119,1.089-.989-.45-.99.45.119-1.089-.729-.812ZM25.314,6.63l.22,4.84-.967.041-.219-4.84.966-.041Zm.315,7.688a11.312,11.312,0,0,1,0,22.622,11,11,0,0,1-4.946-1.182l.909-.593a10.218,10.218,0,0,1,3.014-1.132c1.247-.135,3.647.243,5.034-.514s3.224-1.79,3.092-2.607-.643-.714-.643-.714a1.083,1.083,0,0,1,.186-.27,1.275,1.275,0,0,0,.479-1.244.911.911,0,0,0-.71-.731c.3-.593.665-.538.339-1.639a.816.816,0,0,0-.907-.666,1.5,1.5,0,0,0,.535-1.552c-.249-1-1.062-1.09-2.029-1.016s-3.838.742-3.921.452.14-.434.343-1.084,1.081-2.2.842-3.363-.71-2.1-1.266-2.123a1.072,1.072,0,0,0-1,.686,2.456,2.456,0,0,0,.092,1.074c.15.664-.142,1.11-.744,2.255s-1.054.884-1.755,1.828a3.711,3.711,0,0,0-.768,2.731c-.027,1.323-.594,1.711-1.8,2.809a19.379,19.379,0,0,1-4.388,2.31A11.3,11.3,0,0,1,25.63,14.318ZM20.367,35.6c.1.056.212.1.317.155l-.017.011C20.564,35.719,20.468,35.658,20.367,35.6Zm-4.608-4.65c-.051-.1-.109-.191-.158-.29l.016-.007C15.666,30.756,15.708,30.857,15.759,30.954ZM19.356,34.988Zm1.076,6.3.51-.9.512.9,1.005.212-.69.769.112,1.032-.939-.425-.936.425.111-1.032-.691-.769Zm9.3.316.511-.9.512.9,1,.211-.69.77.111,1.032-.937-.426-.937.426.111-1.032-.69-.77Zm6.724-4.2.538-.951.539.951,1.062.223-.729.812.118,1.09-.99-.45-.988.45.119-1.09-.731-.812ZM40,28.109a1.889,1.889,0,0,1,1.517-.17l.967.264a1.952,1.952,0,0,1,1.234.9,1.9,1.9,0,0,1,.173,1.5,1.986,1.986,0,0,1-.752,1.211,1.36,1.36,0,0,1-1.192.15l-.017-.012.234-.888A.775.775,0,0,0,42.8,31a.9.9,0,0,0,.372-.573.883.883,0,0,0-.145-.787,1.372,1.372,0,0,0-.779-.5l-.975-.266a1.356,1.356,0,0,0-.929.038.914.914,0,0,0-.522.636,1.759,1.759,0,0,0-.074.55.835.835,0,0,0,.089.347l.9.244.239-.9.644.175-.489,1.849-1.79-.487a1.862,1.862,0,0,1-.319-.789,2.694,2.694,0,0,1,.088-1.18,1.958,1.958,0,0,1,.9-1.25Zm4.481-2.293.044.976-4.8.2-.044-.975,3.147-2.1,0-.02-3.23.137-.044-.976,4.8-.2.043.975-3.144,2.1,0,.02,3.228-.137Z" fill-rule="evenodd"/>
</svg>
