<svg id="Group_5069" data-name="Group 5069" xmlns="http://www.w3.org/2000/svg" width="51.259" height="51.259" viewBox="0 0 51.259 51.259">
  <g id="currency" transform="translate(12.232 28.758)">
    <g id="Layer_5_58_" transform="translate(0 0)">
      <g id="Group_5068" data-name="Group 5068">
        <g id="Group_5067" data-name="Group 5067">
          <path id="Path_4885" data-name="Path 4885" d="M115.417,221.864a17.941,17.941,0,0,1-5.619,1.915c-1.83.287-5.272-.405-5.272-1.223,0-.31,3.019.763,4.846.276,1.4-.374,1.2-1.684.44-1.856s-5.194-1.8-7.09-1.853a32.764,32.764,0,0,0-4.163.484c-.365.059-.594.053-.617.4-.106,1.625-.315,4.948-.429,6.684,0,.037.049.53.456.183a2.113,2.113,0,0,1,1.648-.67c.907.206,8.751,1.643,9.833,1.391a27.311,27.311,0,0,0,6.77-3.764C117.52,222.583,116.508,221.262,115.417,221.864Z" transform="translate(-90.183 -219.121)"/>
          <path id="Path_4886" data-name="Path 4886" d="M5.594,222.24l-4.109-.2a.74.74,0,0,0-.72.531l-.747,6.784a.448.448,0,0,0,.434.582H5.005a.606.606,0,0,0,.621-.554l.5-6.536A.561.561,0,0,0,5.594,222.24Zm-2.419,6.8A1.136,1.136,0,1,1,4.311,227.9,1.136,1.136,0,0,1,3.175,229.035Z" transform="translate(0 -221.817)"/>
        </g>
      </g>
    </g>
  </g>
  <path id="img_quality_3" d="M25.63,51.259a25.63,25.63,0,1,1,25.63-25.63A25.679,25.679,0,0,1,25.63,51.259Zm0-48.411A22.782,22.782,0,1,0,48.412,25.63,22.826,22.826,0,0,0,25.63,2.849Zm0,44.614A21.833,21.833,0,1,1,47.462,25.63,21.857,21.857,0,0,1,25.63,47.462Zm0-43.3A21.462,21.462,0,1,0,47.093,25.63,21.486,21.486,0,0,0,25.63,4.167Z" transform="translate(0)" fill-rule="evenodd"/>
  <text id="COD" transform="translate(24.926 23.259)" font-size="13" font-family="SVN-Avenir Next Bold, SVN-Avenir Next" font-weight="700"><tspan x="-15.009" y="0">COD</tspan></text>
</svg>
