<svg xmlns="http://www.w3.org/2000/svg" width="10.888" height="14.222" viewBox="0 0 10.888 14.222"><g transform="translate(0 0.007)"><g transform="translate(0)"><path d="M19.095,6.029,13.187.59a1.114,1.114,0,0,0-.711-.342c-.475,0-.789.533-.789,1.39V13.073a2.122,2.122,0,0,0,.226,1.012.668.668,0,0,0,.583.378,1.094,1.094,0,0,0,.7-.342l5.9-5.439a1.788,1.788,0,0,0,0-2.654Z" transform="translate(-11.686 -0.248)"/></g></g><g transform="translate(9)"><path d="M456.023,493.668h0Z" transform="translate(-454.874 -479.449)"/><path d="M417.691,0h-.327a.8.8,0,0,0-.8.777V13.433a.8.8,0,0,0,.793.781l.347,0a.763.763,0,0,0,.748-.785V.778A.766.766,0,0,0,417.691,0Z" transform="translate(-416.566)"/></g></svg>